<?xml version="1.0" standalone="no"?><!DOCTYPE svg PUBLIC "-//W3C//DTD SVG 1.1//EN" "http://www.w3.org/Graphics/SVG/1.1/DTD/svg11.dtd"><svg t="1626359149541" class="icon" viewBox="0 0 1024 1024" version="1.1" xmlns="http://www.w3.org/2000/svg" p-id="32912" xmlns:xlink="http://www.w3.org/1999/xlink" width="16" height="16"><defs><style type="text/css"></style></defs><path d="M914.285714 1024 109.714286 1024c-53.638095 0-97.52381-43.885714-97.52381-97.52381l73.142857-585.142857c0-53.638095 43.885714-97.52381 97.52381-97.52381l73.142857 0c7.314286-136.533333 117.028571-243.809524 256-243.809524S760.685714 107.27619 768 243.809524l73.142857 0c53.638095 0 97.52381 43.885714 97.52381 97.52381l73.142857 585.142857C1011.809524 980.114286 967.92381 1024 914.285714 1024zM512 48.761905C402.285714 48.761905 312.07619 134.095238 304.761905 243.809524L719.238095 243.809524C711.92381 134.095238 621.714286 48.761905 512 48.761905zM889.904762 341.333333c0-26.819048-21.942857-48.761905-48.761905-48.761905l-73.142857 0-2.438095 0-9.752381 0-39.009524 0L307.2 292.571429l-39.009524 0-9.752381 0L256 292.571429 182.857143 292.571429c-26.819048 0-48.761905 21.942857-48.761905 48.761905l-12.190476 90.209524c39.009524 46.32381 158.47619 182.857143 307.2 219.428571 9.752381-36.571429 41.447619-63.390476 82.895238-63.390476 36.571429 0 68.266667 24.380952 80.457143 58.514286 143.847619-43.885714 268.190476-170.666667 307.2-214.552381L889.904762 341.333333zM475.428571 670.47619c0 19.504762 17.066667 36.571429 36.571429 36.571429s36.571429-17.066667 36.571429-36.571429c0-19.504762-17.066667-36.571429-36.571429-36.571429S475.428571 650.971429 475.428571 670.47619zM909.409524 494.933333c-53.638095 53.638095-175.542857 163.352381-314.514286 199.92381-9.752381 36.571429-43.885714 60.952381-80.457143 60.952381-36.571429 0-68.266667-21.942857-80.457143-56.07619-170.666667-31.695238-292.571429-175.542857-316.952381-207.238095L60.952381 926.47619c0 26.819048 21.942857 48.761905 48.761905 48.761905l804.571429 0c26.819048 0 48.761905-21.942857 48.761905-48.761905L909.409524 494.933333z" p-id="32913"></path></svg>