<?xml version="1.0" standalone="no"?><!DOCTYPE svg PUBLIC "-//W3C//DTD SVG 1.1//EN" "http://www.w3.org/Graphics/SVG/1.1/DTD/svg11.dtd"><svg t="1626359738299" class="icon" viewBox="0 0 1034 1024" version="1.1" xmlns="http://www.w3.org/2000/svg" p-id="9806" xmlns:xlink="http://www.w3.org/1999/xlink" width="16.15625" height="16"><defs><style type="text/css"></style></defs><path d="M951.833719 471.701061 476.385282 942.670212C423.687795 994.840724 353.65869 1023.590131 279.179575 1023.590131 204.641908 1023.590131 134.612803 994.840724 81.944592 942.670212 29.247105 890.470423 0.234211 821.085399 0.234211 747.279641 0.234211 673.473883 29.247105 604.088858 81.944592 551.88907L557.334477 80.949195C610.031964 28.749407 680.090345 0 754.598736 0 829.077851 0 899.136232 28.749407 951.804443 80.949195 1004.472653 133.119707 1033.514824 202.504732 1033.514824 276.31049 1033.5441 350.145524 1004.50193 419.530549 951.833719 471.701061ZM118.218029 587.840467C75.240301 630.437602 51.555708 687.058124 51.555708 747.279641 51.584984 807.501158 75.240301 864.12168 118.218029 906.718815 161.225034 949.286674 218.372531 972.766332 279.179575 972.766332 339.957343 972.766332 397.10484 949.286674 440.082569 906.718815L659.684707 689.166023 337.820168 370.316951 118.218029 587.840467ZM915.50173 116.900592C872.524001 74.303457 815.376505 50.853075 754.598736 50.853075 693.791692 50.853075 636.644195 74.332733 593.63719 116.900592L374.122881 334.365555 695.958144 653.214627 915.531006 435.749664C958.508734 393.152529 982.193327 336.561283 982.193327 276.339766 982.193327 216.118249 958.479458 159.497727 915.50173 116.900592ZM546.79498 722.511822C535.552849 733.636847 517.34294 733.636847 506.042256 722.511822 494.800126 711.357521 494.800126 693.264717 506.042256 682.139692 517.34294 670.98539 535.552849 670.98539 546.79498 682.139692 558.066386 693.264717 558.066386 711.357521 546.79498 722.511822ZM427.552277 800.240615C416.310147 789.11559 416.310147 771.052063 427.581554 759.927038 438.794408 748.74346 457.06287 748.74346 468.305 759.868485 479.576407 771.052063 479.576407 789.11559 468.305 800.240615 457.06287 811.424193 438.794408 811.424193 427.552277 800.240615ZM425.707865 602.156617C414.465735 590.973039 414.436458 572.909512 425.707865 561.784487 436.949996 550.600909 455.159905 550.630186 466.460588 561.784487 477.702719 572.909512 477.731995 590.973039 466.460588 602.156617 455.159905 613.281642 436.949996 613.281642 425.707865 602.156617ZM349.413615 877.647368C338.171484 866.522343 338.171484 848.458816 349.413615 837.304514 360.685022 826.150213 378.894931 826.150213 390.166338 837.275238 401.437745 848.458816 401.437745 866.522343 390.166338 877.647368 378.894931 888.830946 360.685022 888.830946 349.413615 877.647368ZM347.18861 679.88541C335.946479 668.731109 335.946479 650.667582 347.18861 639.51328 358.460017 628.388255 376.728479 628.388255 387.941333 639.51328 399.21274 650.667582 399.21274 668.731109 387.941333 679.88541 376.728479 691.039712 358.460017 691.039712 347.18861 679.88541ZM305.235555 523.16894C293.964148 512.014638 293.964148 493.951111 305.235555 482.767533 316.477685 471.642508 334.716871 471.642508 345.988278 482.796809 357.230409 493.951111 357.230409 512.014638 346.017554 523.16894 334.746147 534.323241 316.477685 534.323241 305.235555 523.16894ZM309.831947 757.32144C298.531263 768.446465 280.262801 768.446465 269.049947 757.32144 257.77854 746.167138 257.77854 728.074335 269.049947 716.978586 280.292078 705.795008 298.531263 705.795008 309.831947 716.978586 321.015524 728.074335 321.044801 746.167138 309.831947 757.32144ZM226.745576 600.927009C215.474169 589.801984 215.474169 571.70918 226.745576 560.525603 237.95843 549.429854 256.197616 549.400578 267.469023 560.554879 278.740429 571.70918 278.740429 589.801984 267.498299 600.927009 256.226892 612.081311 237.95843 612.081311 226.745576 600.927009ZM228.297224 838.094977C217.025817 849.190725 198.786631 849.190725 187.544501 838.0657 176.273094 826.911399 176.273094 808.847871 187.515224 797.69357 198.786631 786.539269 217.025817 786.539269 228.297224 797.69357 239.539354 808.847871 239.539354 826.911399 228.297224 838.094977ZM148.577637 678.363039C137.30623 667.179461 137.335506 649.115933 148.54836 637.990908 159.849044 626.836607 178.058953 626.836607 189.301084 637.990908 200.601767 649.115933 200.601767 667.208737 189.301084 678.392315 178.117506 689.51734 159.849044 689.51734 148.577637 678.363039Z" p-id="9807"></path></svg>