<?xml version="1.0" standalone="no"?><!DOCTYPE svg PUBLIC "-//W3C//DTD SVG 1.1//EN" "http://www.w3.org/Graphics/SVG/1.1/DTD/svg11.dtd"><svg t="1626359717971" class="icon" viewBox="0 0 1024 1024" version="1.1" xmlns="http://www.w3.org/2000/svg" p-id="8769" xmlns:xlink="http://www.w3.org/1999/xlink" width="16" height="16"><defs><style type="text/css"></style></defs><path d="M324.266667 492.8h420.266666c10.666667 0 19.2-4.266667 23.466667-12.8 6.4-8.533333 6.4-19.2 4.266667-29.866667l-40.533334-113.066666c-6.4-14.933333-21.333333-25.6-38.4-25.6H375.466667c-14.933333 0-32 10.666667-38.4 27.733333l-40.533334 110.933333c-4.266667 10.666667-2.133333 21.333333 4.266667 29.866667 6.4 8.533333 14.933333 12.8 23.466667 12.8z m49.066666-140.8c2.133333 0 2.133333-2.133333 0 0l317.866667-2.133333h2.133333l36.266667 102.4H337.066667l36.266666-100.266667z m-68.266666 185.6c-32 0-57.6 25.6-57.6 57.6 0 32 25.6 57.6 57.6 57.6 32 0 57.6-25.6 57.6-57.6s-25.6-57.6-57.6-57.6z m0 81.066667c-12.8 0-23.466667-10.666667-23.466667-23.466667 0-12.8 10.666667-23.466667 23.466667-23.466667 12.8 0 23.466667 10.666667 23.466666 23.466667s-10.666667 23.466667-23.466666 23.466667z m614.4-174.933334c0-32-25.6-57.6-59.733334-57.6h-34.133333l-29.866667-76.8c0-2.133333-2.133333-4.266667-2.133333-6.4v-2.133333c-8.533333-21.333333-21.333333-57.6-72.533333-57.6h-66.133334L627.2 192c-2.133333-6.4-12.8-23.466667-34.133333-23.466667h-115.2c-21.333333 0-32 17.066667-34.133334 23.466667l-27.733333 53.333333h-66.133333c-46.933333 0-70.4 49.066667-76.8 64l-29.866667 76.8H209.066667c-34.133333 0-59.733333 25.6-59.733334 57.6 0 27.733333 21.333333 51.2 49.066667 55.466667l-2.133333 6.4c-8.533333 23.466667-17.066667 64-17.066667 91.733333v192c0 38.4 32 70.4 70.4 70.4 38.4 0 70.4-32 70.4-70.4v-10.666666h422.4v10.666666c0 38.4 34.133333 70.4 74.666667 70.4s74.666667-32 74.666666-70.4v-189.866666c0-25.6-8.533333-66.133333-17.066666-91.733334l-2.133334-6.4c27.733333-6.4 46.933333-29.866667 46.933334-57.6z m-59.733334 19.2h-17.066666c-6.4 0-12.8 2.133333-17.066667 8.533334-4.266667 6.4-4.266667 12.8-2.133333 19.2l12.8 32c8.533333 21.333333 14.933333 57.6 14.933333 78.933333V789.333333c0 17.066667-17.066667 32-34.133333 32-19.2 0-34.133333-14.933333-34.133334-32v-29.866666c0-10.666667-8.533333-19.2-19.2-19.2H300.8c-10.666667 0-19.2 8.533333-19.2 19.2V789.333333c0 17.066667-12.8 32-32 32-17.066667 0-29.866667-14.933333-29.866667-32v-189.866666c0-23.466667 6.4-59.733333 14.933334-78.933334l10.666666-32c2.133333-6.4 2.133333-12.8-2.133333-17.066666-4.266667-4.266667-8.533333-8.533333-14.933333-8.533334h-19.2c-10.666667 0-21.333333-6.4-21.333334-19.2 0-12.8 10.666667-19.2 21.333334-19.2h49.066666c8.533333 0 14.933333-4.266667 19.2-12.8l34.133334-89.6c6.4-19.2 21.333333-40.533333 40.533333-40.533333h68.266667c4.266667 0 6.4 0 8.533333-2.133333 6.4 0 14.933333-4.266667 17.066667-10.666667l32-59.733333c0-2.133333 2.133333-2.133333 2.133333-2.133334h110.933333s0 2.133333 2.133334 2.133334l29.866666 59.733333c2.133333 4.266667 6.4 8.533333 12.8 10.666667 4.266667 2.133333 8.533333 4.266667 12.8 4.266666h74.666667c23.466667 0 29.866667 10.666667 36.266667 32 0 2.133333 2.133333 4.266667 2.133333 6.4l34.133333 89.6c2.133333 8.533333 10.666667 12.8 19.2 12.8h49.066667c10.666667 0 21.333333 6.4 21.333333 19.2-4.266667 12.8-14.933333 19.2-25.6 19.2z m-96 74.666667c-32 0-57.6 25.6-57.6 57.6 0 32 25.6 57.6 57.6 57.6 32 0 57.6-25.6 57.6-57.6s-25.6-57.6-57.6-57.6z m0 81.066667c-12.8 0-23.466667-10.666667-23.466666-23.466667 0-12.8 10.666667-23.466667 23.466666-23.466667 12.8 0 23.466667 10.666667 23.466667 23.466667 0 12.8-10.666667 23.466667-23.466667 23.466667z" fill="#222222" p-id="8770"></path></svg>