<?xml version="1.0" standalone="no"?><!DOCTYPE svg PUBLIC "-//W3C//DTD SVG 1.1//EN" "http://www.w3.org/Graphics/SVG/1.1/DTD/svg11.dtd"><svg t="1626359700979" class="icon" viewBox="0 0 1024 1024" version="1.1" xmlns="http://www.w3.org/2000/svg" p-id="7884" xmlns:xlink="http://www.w3.org/1999/xlink" width="16" height="16"><defs><style type="text/css"></style></defs><path d="M934.912 514.218667a21.205333 21.205333 0 0 1-13.738667-4.992l-391.594666-329.813334-391.594667 329.813334a21.333333 21.333333 0 0 1-27.477333-32.64l405.333333-341.333334a21.418667 21.418667 0 0 1 27.477333 0l405.333334 341.333334a21.333333 21.333333 0 0 1-13.738667 37.632z" fill="#757575" p-id="7885"></path><path d="M252.245333 917.333333a21.333333 21.333333 0 0 1-21.333333-21.333333v-362.666667a21.333333 21.333333 0 0 1 42.666667 0V896a21.333333 21.333333 0 0 1-21.333334 21.333333zM806.912 917.333333a21.333333 21.333333 0 0 1-21.333333-21.333333v-362.666667a21.333333 21.333333 0 0 1 42.666666 0V896a21.333333 21.333333 0 0 1-21.333333 21.333333z" fill="#757575" p-id="7886"></path><path d="M849.578667 917.333333h-640a21.333333 21.333333 0 1 1 0-42.666666h640a21.333333 21.333333 0 0 1 0 42.666666zM426.922667 779.989333a21.333333 21.333333 0 0 1-17.194667-33.962666l205.312-279.978667a21.333333 21.333333 0 0 1 34.432 25.216l-205.354667 280.021333a21.248 21.248 0 0 1-17.194666 8.704zM436.266667 630.656a82.517333 82.517333 0 0 1-77.354667-86.656 82.517333 82.517333 0 0 1 77.354667-86.656 82.517333 82.517333 0 0 1 77.312 86.613333 82.517333 82.517333 0 0 1-77.312 86.698667z m0-130.688a40.234667 40.234667 0 0 0-34.688 44.032 40.234667 40.234667 0 0 0 34.688 43.989333 40.234667 40.234667 0 0 0 34.645333-43.989333 40.234667 40.234667 0 0 0-34.645333-44.032zM622.933333 779.989333a82.517333 82.517333 0 0 1-77.354666-86.656 82.517333 82.517333 0 0 1 77.354666-86.698666 82.517333 82.517333 0 0 1 77.312 86.698666A82.517333 82.517333 0 0 1 622.933333 779.946667z m0-130.688a40.234667 40.234667 0 0 0-34.688 44.032 40.234667 40.234667 0 0 0 34.688 43.989334 40.234667 40.234667 0 0 0 34.645334-43.989334 40.234667 40.234667 0 0 0-34.645334-44.032z" fill="#757575" p-id="7887"></path></svg>