<?xml version="1.0" standalone="no"?><!DOCTYPE svg PUBLIC "-//W3C//DTD SVG 1.1//EN" "http://www.w3.org/Graphics/SVG/1.1/DTD/svg11.dtd"><svg t="1626359726084" class="icon" viewBox="0 0 1024 1024" version="1.1" xmlns="http://www.w3.org/2000/svg" p-id="9212" xmlns:xlink="http://www.w3.org/1999/xlink" width="16" height="16"><defs><style type="text/css"></style></defs><path d="M196.923077 810.535385h630.153846v78.76923H196.923077z" fill="#BFBFBF" p-id="9213"></path><path d="M630.153846 664.812308H393.846154c-17.329231 0-31.507692-14.178462-31.507692-31.507693s14.178462-31.507692 31.507692-31.507692h236.307692c17.329231 0 31.507692 14.178462 31.507692 31.507692s-14.178462 31.507692-31.507692 31.507693zM630.153846 765.636923H393.846154c-17.329231 0-31.507692-14.178462-31.507692-31.507692s14.178462-31.507692 31.507692-31.507693h236.307692c17.329231 0 31.507692 14.178462 31.507692 31.507693s-14.178462 31.507692-31.507692 31.507692z" fill="#808080" p-id="9214"></path><path d="M512 901.12c-17.329231 0-31.507692-14.178462-31.507692-31.507692v-236.307693c0-17.329231 14.178462-31.507692 31.507692-31.507692s31.507692 14.178462 31.507692 31.507692v236.307693c0 17.329231-14.178462 31.507692-31.507692 31.507692z" fill="#808080" p-id="9215"></path><path d="M512 664.812308c-7.876923 0-15.753846-3.150769-22.055385-9.452308l-118.153846-118.153846c-12.603077-12.603077-12.603077-32.295385 0-44.898462 12.603077-12.603077 32.295385-12.603077 44.898462 0L512 589.193846l96.098462-96.098461c12.603077-12.603077 32.295385-12.603077 44.898461 0 12.603077 12.603077 12.603077 32.295385 0 44.898461l-118.153846 118.153846c-7.089231 5.513846-14.966154 8.664615-22.843077 8.664616z" fill="#808080" p-id="9216"></path><path d="M118.153846 526.966154c-7.876923 0-15.753846-3.150769-22.055384-9.452308-12.603077-12.603077-12.603077-32.295385 0-44.898461l337.92-337.92c20.48-20.48 48.836923-32.295385 77.981538-32.295385s57.501538 11.815385 77.981538 32.295385L927.901538 472.615385c12.603077 12.603077 12.603077 32.295385 0 44.898461-12.603077 12.603077-32.295385 12.603077-44.898461 0L545.083077 179.593846C536.418462 170.929231 524.603077 165.415385 512 165.415385s-24.418462 4.726154-33.083077 14.178461l-338.707692 338.707692c-5.513846 5.513846-14.178462 8.664615-22.055385 8.664616z" fill="#7F7F7F" p-id="9217"></path><path d="M827.076923 920.812308H196.923077c-8.664615 0-16.541538-3.150769-22.055385-9.452308-6.301538-6.301538-9.452308-14.178462-9.452307-22.055385v-472.615384c0-17.329231 14.178462-31.507692 31.507692-31.507693s31.507692 14.178462 31.507692 31.507693v441.107692h567.138462v-441.107692c0-17.329231 14.178462-31.507692 31.507692-31.507693s31.507692 14.178462 31.507692 31.507693v472.615384c0 17.329231-14.178462 31.507692-31.507692 31.507693z" fill="#7F7F7F" p-id="9218"></path></svg>