<?xml version="1.0" standalone="no"?><!DOCTYPE svg PUBLIC "-//W3C//DTD SVG 1.1//EN" "http://www.w3.org/Graphics/SVG/1.1/DTD/svg11.dtd"><svg t="1626359706729" class="icon" viewBox="0 0 1024 1024" version="1.1" xmlns="http://www.w3.org/2000/svg" p-id="8178" xmlns:xlink="http://www.w3.org/1999/xlink" width="16" height="16"><defs><style type="text/css"></style></defs><path d="M754.94 960c-2.99 0-6-0.32-8.99-0.98-13.82-3.06-24.95-12.83-29.79-26.13l-131.7-362.16-180.69 165.33 56.78 143.96a41.127 41.127 0 0 1-9.2 44.24l-17.09 17.08c-8.65 8.65-20.64 13-32.8 11.9-12.2-1.1-23.19-7.5-30.16-17.56L255.67 768.71 88.32 652.68a41.009 41.009 0 0 1-17.56-30.14 41.002 41.002 0 0 1 11.89-32.81l17.1-17.1c11.58-11.61 28.93-15.2 44.23-9.19l143.96 56.78 165.35-180.68L91.1 307.84c-13.29-4.84-23.06-15.97-26.12-29.78-3.05-13.81 1.09-28.03 11.09-38.02l52.98-52.98c10.01-10.02 24.27-14.17 38.09-11.07L604.6 274.2l120.79-132.01 28.06-29.4c25.9-28.17 71.17-47.9 112.29-48.76 28.73-0.59 52.6 7.98 69.42 24.8 16.83 16.82 25.4 40.83 24.81 69.43-0.86 41.13-20.6 86.39-49.13 112.62l-28.63 27.34-132.4 121.19L848 856.82c0 0.01 0.01 0.02 0.01 0.03 3.09 13.84-1.04 28.08-11.07 38.1l-52.99 52.98c-7.82 7.83-18.23 12.07-29.01 12.07zM590.08 508.15c3.14 0 6.31 0.38 9.44 1.15a39.47 39.47 0 0 1 27.73 24.89L759.5 897.85l35.68-35.68-98.47-438.67c-3.11-13.75 1.44-28.26 11.88-37.82l137.63-125.95 28.59-27.3c18.1-16.66 31.91-48.88 32.46-75.27 0.19-9.69-1.26-22.95-9.38-31.07-8.13-8.12-21.45-9.61-31.06-9.37-26.39 0.55-58.6 14.35-74.94 32.1l-28.01 29.35L638.32 315.4c-9.55 10.42-24.05 14.94-37.8 11.89l-438.69-98.48-35.68 35.69 363.68 132.25a39.383 39.383 0 0 1 24.87 27.7 39.432 39.432 0 0 1-9.2 36.11L314.57 669.18c-7.39 8.06-18.98 10.72-29.11 6.72l-153.81-60.66-1.97 1.98L285.3 725c5.37 3.71 9.99 8.33 13.7 13.72l107.77 155.59 1.98-1.98-60.66-153.79a26.339 26.339 0 0 1 6.72-29.11l208.61-190.9c7.39-6.75 16.89-10.38 26.66-10.38z m158.05-96.24v0z" fill="#333333" p-id="8179"></path></svg>