<?xml version="1.0" standalone="no"?><!DOCTYPE svg PUBLIC "-//W3C//DTD SVG 1.1//EN" "http://www.w3.org/Graphics/SVG/1.1/DTD/svg11.dtd"><svg t="1626108735977" class="icon" viewBox="0 0 1024 1024" version="1.1" xmlns="http://www.w3.org/2000/svg" p-id="4756" xmlns:xlink="http://www.w3.org/1999/xlink" width="16" height="16"><defs><style type="text/css"></style></defs><path d="M859.093333 259.2A83.2 83.2 0 0 0 832 198.186667a87.04 87.04 0 0 0-119.893333 5.333333l-145.066667 145.066667-249.813333-90.88h-21.333334l-15.36 5.333333-10.666666 62.08 180.053333 140.16-123.093333 123.093333-137.386667 11.306667-9.6 9.6a37.333333 37.333333 0 0 0-5.76 4.906667l-8.106667 7.893333v8.32l1.706667 1.28 2.986667 17.92 19.2 26.026667 128 37.546666h2.773333a34.56 34.56 0 0 1 1.706667 5.12l37.12 128 26.026666 19.2 16.426667 2.773334 2.986667 1.92 1.92-1.066667h6.186666l7.893334-7.893333a37.333333 37.333333 0 0 0 4.906666-5.76l9.6-9.6 12.586667-136.746667 123.093333-123.093333 57.6 74.026666 34.133334-25.6-87.68-112.853333L405.333333 689.92l-10.453333 125.653333-31.36-106.666666a55.04 55.04 0 0 0-12.373333-24.106667 51.84 51.84 0 0 0-22.826667-11.946667L219.733333 640l125.653334-10.453333 168.32-168.32-198.186667-154.026667v-4.266667L576 398.08l164.266667-164.266667a45.013333 45.013333 0 0 1 61.226666-4.053333 42.666667 42.666667 0 0 1 1.706667 61.866667l-165.333333 166.186666 94.506666 261.12h-4.266666l-40.106667-51.84-34.133333 25.6 56.32 72.533334 62.506666-11.093334 5.12-15.573333v-21.333333L687.146667 469.333333l146.986666-146.986666a83.626667 83.626667 0 0 0 24.96-63.146667z" fill="#8B7DD5" p-id="4757"></path></svg>