<?xml version="1.0" standalone="no"?><!DOCTYPE svg PUBLIC "-//W3C//DTD SVG 1.1//EN" "http://www.w3.org/Graphics/SVG/1.1/DTD/svg11.dtd"><svg t="1626359698394" class="icon" viewBox="0 0 1024 1024" version="1.1" xmlns="http://www.w3.org/2000/svg" p-id="7736" xmlns:xlink="http://www.w3.org/1999/xlink" width="16" height="16"><defs><style type="text/css"></style></defs><path d="M677.6832 700.1088H332.3904a13.2096 13.2096 0 1 1 0-26.368h345.2928a13.2096 13.2096 0 1 1 0 26.368z" fill="#4D4D4D" p-id="7737"></path><path d="M882.4832 703.0784c-32.6144 0-65.536-0.512-67.584-0.5632a13.2096 13.2096 0 0 1 0-26.368c0.768 0 75.8272 1.1776 111.8208 0 18.8928-2.6624 18.2784-32.3584 18.2784-32.6656V455.168l-73.8816-159.9488H119.808c-31.0272-2.4064-35.84 18.5856-36.864 24.1152v296.96c0 41.4208 22.0672 53.5552 28.0576 56.32h81.5616a13.2096 13.2096 0 1 1 0 26.368H108.6464a13.6704 13.6704 0 0 1-3.5328-0.4608c-1.9968-0.5632-48.5376-14.4384-48.5376-81.92V318.5152a9.8816 9.8816 0 0 1 0-1.2288c1.6384-18.2784 17.3568-51.8144 64.6656-48.4352h758.272a13.1584 13.1584 0 0 1 11.9808 7.6288l79.0528 170.24a13.0048 13.0048 0 0 1 1.2288 5.5296v190.72c0.4608 18.944-7.68 55.5008-42.0864 59.4944h-1.0752c-12.1344 0.4608-29.2352 0.6144-46.1312 0.6144z" fill="#4D4D4D" p-id="7738"></path><path d="M141.5168 487.3216H75.8272a13.2096 13.2096 0 0 1 0-26.368h52.48V354.816H73.4208a13.2096 13.2096 0 0 1 0-26.4192h68.096a13.2096 13.2096 0 0 1 13.1584 13.2096v132.5568a13.1584 13.1584 0 0 1-13.1584 13.1584zM355.4816 486.0928H198.656a13.2096 13.2096 0 0 1-13.2096-13.1584V340.3776a13.2096 13.2096 0 0 1 13.2096-13.1584h156.8256A13.1584 13.1584 0 0 1 368.64 340.3776v132.5568a13.1584 13.1584 0 0 1-13.1584 13.1584z m-143.6672-26.368h130.5088V353.5872H211.8144zM564.6336 482.4576H407.7568a13.1584 13.1584 0 0 1-13.1584-13.1584V336.7424a13.2096 13.2096 0 0 1 13.1584-13.2096h156.8768a13.2608 13.2608 0 0 1 13.2096 13.2096v132.5568a13.2096 13.2096 0 0 1-13.2096 13.1584z m-143.6672-26.368h130.4576V349.952H420.9664zM782.2848 483.6864h-156.8768a13.1584 13.1584 0 0 1-13.1584-13.2096V337.92a13.1584 13.1584 0 0 1 13.1584-13.2096h156.8768a13.1584 13.1584 0 0 1 13.1584 13.2096v132.5568a13.1584 13.1584 0 0 1-13.1584 13.2096z m-143.6672-26.368h130.4576V351.1296h-130.4576zM957.44 518.9632h-119.2448a13.2096 13.2096 0 0 1-13.1584-13.2096V344.0128a13.1584 13.1584 0 0 1 13.1584-13.1584h69.3248a13.2096 13.2096 0 0 1 0 26.368h-56.32V492.544H957.44a13.2096 13.2096 0 1 1 0 26.4192zM954.9312 601.6h-68.096a13.2096 13.2096 0 1 1 0-26.368h68.096a13.2096 13.2096 0 1 1 0 26.368zM266.5472 764.5696a78.848 78.848 0 1 1 78.848-78.848 78.9504 78.9504 0 0 1-78.848 78.848z m0-131.328a52.48 52.48 0 1 0 52.4288 52.48 52.5312 52.5312 0 0 0-52.4288-52.48zM746.8032 764.5696a78.848 78.848 0 1 1 78.848-78.848 78.9504 78.9504 0 0 1-78.848 78.848z m0-131.328a52.48 52.48 0 1 0 52.48 52.48 52.5312 52.5312 0 0 0-52.48-52.48z" fill="#4D4D4D" p-id="7739"></path></svg>