<?xml version="1.0" standalone="no"?><!DOCTYPE svg PUBLIC "-//W3C//DTD SVG 1.1//EN" "http://www.w3.org/Graphics/SVG/1.1/DTD/svg11.dtd"><svg t="1626108741733" class="icon" viewBox="0 0 1024 1024" version="1.1" xmlns="http://www.w3.org/2000/svg" p-id="5049" xmlns:xlink="http://www.w3.org/1999/xlink" width="16" height="16"><defs><style type="text/css"></style></defs><path d="M923.3 790.7l-86.8-416.9C825.7 321.7 779.2 284 726 284h-27.6c-1.9-101.4-85-183.3-186.8-183.3S326.7 182.6 324.8 284h-27.6c-53.2 0-99.6 37.8-110.5 89.8L173.6 437c-2.9 13.9 6 27.4 19.9 30.3 13.8 2.9 27.4-6 30.3-19.9l13.2-63.2c5.9-28.4 31.3-49 60.3-49h428.9c29 0 54.4 20.6 60.3 49l86.8 416.9c3.8 18.2-0.8 36.9-12.5 51.4-11.7 14.4-29.1 22.7-47.8 22.7H210.4c-18.6 0-36-8.3-47.8-22.7-11.7-14.4-16.3-33.2-12.5-51.4L193 595.3c2.9-13.9-6-27.4-19.9-30.3-13.9-2.9-27.4 6-30.3 19.9L100 790.7c-6.9 33.4 1.4 67.7 22.9 94.2s53.4 41.6 87.5 41.6h602.4c34.1 0 66-15.2 87.5-41.6 21.6-26.5 30-60.8 23-94.2zM376.1 284c1.9-73.1 62-132.1 135.6-132.1S645.4 210.8 647.3 284H376.1z" fill="#BB6BF0" p-id="5050"></path><path d="M451.5 516c0-44.4-36.1-80.5-80.5-80.5s-80.5 36.1-80.5 80.5 36.1 80.5 80.5 80.5 80.5-36.1 80.5-80.5z m-109.7 0c0-16.1 13.1-29.2 29.2-29.2s29.2 13.1 29.2 29.2-13.1 29.2-29.2 29.2-29.2-13.1-29.2-29.2zM732.8 516c0-44.4-36.1-80.5-80.5-80.5s-80.5 36.1-80.5 80.5 36.1 80.5 80.5 80.5 80.5-36.1 80.5-80.5zM623 516c0-16.1 13.1-29.2 29.2-29.2s29.2 13.1 29.2 29.2-13.1 29.2-29.2 29.2c-16 0.1-29.2-13.1-29.2-29.2z" fill="#BB6BF0" p-id="5051"></path></svg>