<?xml version="1.0" standalone="no"?><!DOCTYPE svg PUBLIC "-//W3C//DTD SVG 1.1//EN" "http://www.w3.org/Graphics/SVG/1.1/DTD/svg11.dtd"><svg t="1626108739125" class="icon" viewBox="0 0 1024 1024" version="1.1" xmlns="http://www.w3.org/2000/svg" p-id="4902" xmlns:xlink="http://www.w3.org/1999/xlink" width="16" height="16"><defs><style type="text/css"></style></defs><path d="M195 473.42h634.04c51.24 0 106.4-33.01 106.4-105.52 0-70.27-44.38-144.36-121.78-203.28C731.1 101.75 624 67.12 512.1 67.12s-219 34.63-301.56 97.5C133.14 223.54 88.75 297.63 88.75 367.9c0 66.05 54.02 105.52 106.25 105.52z m58.1-252.9c70.41-53.61 162.38-83.14 259-83.14s188.59 29.53 259 83.14c58.92 44.85 94.08 99.95 94.08 147.38 0 30.67-22.64 35.26-36.14 35.26H195c-13.92 0-36-9.57-36-35.26 0.01-47.43 35.18-102.53 94.1-147.38zM79.24 713.61v62.84c0 101.32 105.56 180.68 240.32 180.68h385.07c134.77 0 240.33-79.36 240.33-180.68v-62.84H79.24z m625.39 173.26H319.56c-88.34 0-163.55-46.45-169.66-103h724.39c-6.1 56.55-81.31 103-169.66 103zM109.76 666.24c35.4 9.43 57.89-22.48 75.92-48.12 13.52-19.21 32.03-45.54 47.01-46.04 10.29-0.1 25.02 18.06 38.66 35.87 22.4 29.24 50.28 65.64 98.43 67.49 49.31 1.96 79.24-33.21 103.74-61.41 20.31-23.37 33.52-37.55 47.1-36.63 11.55 0.73 21.06 12.65 35.62 32.03 18.05 24.04 42.76 56.96 86.9 59.27 49.76 2.47 81.68-34.87 107.25-64.99 13.95-16.43 31.07-36.63 41.17-35.85 11.5 1.25 26.29 26.52 37.09 44.98 16.74 28.62 37.44 64.03 75.15 64.02 1.21 0 2.45-0.03 3.69-0.1 19.37-1.17 34.13-17.8 32.98-37.17-1.05-17.6-14.88-31.39-31.92-32.9-5.19-5.26-13.54-19.53-19.27-29.32-18.34-31.37-43.47-74.31-90.2-79.35-46.81-5-77.58 31.16-102.26 60.23-17.15 20.21-35 40.33-50.02 40.29-10.22-0.54-18.73-10.42-34.39-31.28-18.11-24.13-42.92-57.18-87.39-59.98-49.02-3.12-79.84 32.26-104.53 60.65-19.91 22.89-33.76 38.19-48.02 37.29-14.11-0.54-27.11-16.19-45.36-40-22.15-28.92-49.33-65-96.76-63.36-49.97 1.66-80.14 44.53-102.15 75.83-4.4 6.24-10.55 14.99-14.74 19.85-13.39 2.06-24.95 11.8-28.65 25.72-4.96 18.76 6.21 38 24.95 42.98z" fill="#E9B286" p-id="4903"></path><path d="M558 341.55c14.7-12.66 16.36-34.84 3.7-49.54-12.66-14.7-34.84-16.36-49.54-3.7-14.7 12.66-16.36 34.84-3.7 49.54 12.66 14.7 34.84 16.36 49.54 3.7zM749.19 341.55c14.7-12.66 16.36-34.84 3.7-49.54-12.66-14.7-34.84-16.36-49.54-3.7-14.7 12.66-16.36 34.84-3.7 49.54 12.65 14.7 34.83 16.36 49.54 3.7zM265.09 358.97c14.7-12.66 16.36-34.84 3.7-49.54-12.66-14.7-34.84-16.36-49.54-3.7-14.7 12.66-16.36 34.84-3.7 49.54 12.65 14.7 34.84 16.36 49.54 3.7zM475.72 218.42c14.7-12.66 16.36-34.84 3.7-49.54-12.66-14.7-34.84-16.36-49.54-3.7-14.7 12.66-16.36 34.84-3.7 49.54 12.66 14.7 34.84 16.35 49.54 3.7z" fill="#E9B286" p-id="4904"></path></svg>