<?xml version="1.0" standalone="no"?><!DOCTYPE svg PUBLIC "-//W3C//DTD SVG 1.1//EN" "http://www.w3.org/Graphics/SVG/1.1/DTD/svg11.dtd"><svg t="1626108715228" class="icon" viewBox="0 0 1024 1024" version="1.1" xmlns="http://www.w3.org/2000/svg" p-id="3873" xmlns:xlink="http://www.w3.org/1999/xlink" width="16" height="16"><defs><style type="text/css"></style></defs><path d="M817.787727 454.38337l-291.665001-247.045373c-19.853688-16.78353-48.917849-17.192884-69.180891-0.818709L165.788527 441.795723c-9.722167 7.777733-11.154907 22.002798-3.377174 31.622626 7.777733 9.722167 22.002798 11.154907 31.622626 3.377174L485.289626 241.519089c3.479512-2.763142 8.391765-2.763142 11.768939 0.102339l291.665001 247.045373c4.195882 3.581851 9.415151 5.321607 14.532081 5.321607 6.344993 0 12.689986-2.660804 17.192884-7.982411C828.430941 476.693184 827.202878 462.468119 817.787727 454.38337zM730.697581 512.71637c-12.485309 0-22.514491 10.029182-22.514491 22.514491l0 220.027983c0 5.11693-4.093544 9.210474-9.210474 9.210474l-93.128123 0c-5.11693 0-9.210474-4.093544-9.210474-9.210474L596.63402 603.797721c0-29.88287-24.356586-54.239456-54.239456-54.239456L430.845493 549.558265c-29.88287 0-54.239456 24.356586-54.239456 54.239456l0 151.461123c0 5.11693-4.093544 9.210474-9.210474 9.210474l-96.198281 0c-5.11693 0-9.210474-4.093544-9.210474-9.210474L261.986808 535.230861c0-12.485309-10.029182-22.514491-22.514491-22.514491s-22.514491 10.029182-22.514491 22.514491l0 220.027983c0 29.88287 24.356586 54.239456 54.239456 54.239456l96.198281 0c29.88287 0 54.239456-24.356586 54.239456-54.239456L421.635019 603.797721c0-5.11693 4.093544-9.210474 9.210474-9.210474l111.549071 0c5.11693 0 9.210474 4.093544 9.210474 9.210474l0 151.461123c0 29.88287 24.356586 54.239456 54.239456 54.239456l93.128123 0c29.88287 0 54.239456-24.356586 54.239456-54.239456L753.212073 535.230861C753.212073 522.745553 743.18289 512.71637 730.697581 512.71637z" fill="#19A9FD" p-id="3874"></path></svg>