<?xml version="1.0" standalone="no"?><!DOCTYPE svg PUBLIC "-//W3C//DTD SVG 1.1//EN" "http://www.w3.org/Graphics/SVG/1.1/DTD/svg11.dtd"><svg t="1626359146228" class="icon" viewBox="0 0 1024 1024" version="1.1" xmlns="http://www.w3.org/2000/svg" p-id="32766" xmlns:xlink="http://www.w3.org/1999/xlink" width="16" height="16"><defs><style type="text/css"></style></defs><path d="M681.991987 360.657101 681.991987 225.537709l-1.923891-4.973261C661.103309 171.4816 553.642598-14.584115 458.863206 3.247002c-73.05175 13.626368-81.503539 125.917798-81.503539 209.193472l0 148.220786c-33.87177 17.363456-57.118208 52.618445-57.118208 93.223219l0 456.938963c0 57.730867 46.975795 104.712909 104.716186 104.712909L634.393971 1015.536351c57.74039 0 104.716186-46.982042 104.716186-104.712909L739.110157 453.882348C739.111117 413.278618 715.863757 378.023629 681.991987 360.657101zM424.958566 406.285312 634.393971 406.285312c22.984397 0 42.217165 16.380109 46.639104 38.078259l-302.71661 0C382.740378 422.665318 401.97417 406.285312 424.958566 406.285312zM469.342208 59.396813c36.219392-6.778368 124.294861 101.123072 155.531469 176.954163l0 112.817462L434.478821 349.168438 434.478821 212.43939C434.478797 96.756634 456.390758 61.801574 469.342208 59.396813zM681.991987 910.821274c0 26.24983-21.353165 47.596032-47.597978 47.596032L424.958613 958.417306c-26.244813 0-47.597978-21.345178-47.597978-47.596032L377.360636 482.439754l304.632317 0L681.991987 910.821274 681.991987 910.821274z" p-id="32767"></path></svg>