<?xml version="1.0" standalone="no"?><!DOCTYPE svg PUBLIC "-//W3C//DTD SVG 1.1//EN" "http://www.w3.org/Graphics/SVG/1.1/DTD/svg11.dtd"><svg t="1626359736231" class="icon" viewBox="0 0 1024 1024" version="1.1" xmlns="http://www.w3.org/2000/svg" p-id="9659" xmlns:xlink="http://www.w3.org/1999/xlink" width="16" height="16"><defs><style type="text/css"></style></defs><path d="M304.244973 732.218161a43.350032 43.350032 0 0 0 59.606293-14.33441 43.350032 43.350032 0 0 0-14.341635-59.606294C257.549764 601.987441 202.654173 504.110294 202.654173 396.457715c0-169.115699 137.585776-306.701475 306.701475-306.701474 169.115699 0 306.701475 137.585776 306.701475 306.701474 0 104.610852-52.547463 200.999647-140.562478 257.845989a43.342807 43.342807 0 0 0-12.896635 59.931419 43.328357 43.328357 0 0 0 59.931419 12.896635c112.854583-72.878628 180.227757-196.491244 180.227757-330.674043 0-216.916334-176.477979-393.401538-393.401538-393.401538-216.916334 0-393.401538 176.477979-393.401538 393.401538-0.007225 138.069851 70.386002 263.589868 188.290863 335.760446z" fill="#231815" p-id="9660"></path><path d="M869.088662 935.363635H552.698455V300.73362a43.350032 43.350032 0 0 0-86.700064 0v634.630015H149.60096a43.350032 43.350032 0 0 0 0 86.700064h719.487702a43.350032 43.350032 0 0 0 0-86.700064z" fill="#231815" p-id="9661"></path></svg>