<?xml version="1.0" standalone="no"?><!DOCTYPE svg PUBLIC "-//W3C//DTD SVG 1.1//EN" "http://www.w3.org/Graphics/SVG/1.1/DTD/svg11.dtd"><svg t="1626359158557" class="icon" viewBox="0 0 1024 1024" version="1.1" xmlns="http://www.w3.org/2000/svg" p-id="33357" xmlns:xlink="http://www.w3.org/1999/xlink" width="16" height="16"><defs><style type="text/css"></style></defs><path d="M795.8 639h-23.6l-3-4.5c-5.3-8-14.2-12.8-23.8-12.8H551c-9.6 0-18.5 4.8-23.8 12.8l-3 4.5h-23.7l-3-4.4c-5.3-8-14.3-12.8-23.9-12.8H277.7c-9.6 0-18.5 4.8-23.9 12.8l-3 4.4H229v-78c0-2.3-1-57.8-55.5-62.2l-9.2-0.7v-75.8c0-102.2 83.2-185.4 185.4-185.4H675c102.2 0 185.4 83.1 185.4 185.4V498l-9.2 0.8c-22.9 1.9-39.1 12.8-48.2 32.3-6.9 14.9-7.1 29.7-7.1 29.8V639z m-285-20h3c9.2-10.9 22.7-17.2 37.1-17.2h194.4c11.2 0 21.9 3.8 30.4 10.6V561c0-0.8 0.1-19.1 9-38.3 7.8-16.7 23.6-36.9 55.5-42.6v-57.8c0-91.2-74.2-165.4-165.4-165.4H349.6c-91.2 0-165.4 74.2-165.4 165.4V480c32 5.6 47.9 25.9 55.7 42.6 8.9 19.2 9 37.5 9 38.3V611c8.2-6 18.2-9.4 28.7-9.4h195.9c14.6 0.2 28.1 6.5 37.3 17.4z m339.5-130.1z" fill="" p-id="33358"></path><path d="M249 745H139v-67.8c-47.7-47.4-70.6-92.1-66.4-129.5 2.7-24.3 17-44.9 41.2-59.7l1.1-0.7 1.2-0.4c22-6.7 41.9-9.4 59-8 38.2 3.1 56.4 25.5 64.9 43.8 8.9 19.2 9 37.5 9 38.3v184z m-90-20h70V561c0-2.5-1-57.8-55.5-62.2-14.3-1.2-31.2 1.2-50.3 6.9-18.3 11.5-28.7 26.4-30.7 44.2-3.6 31.8 18.4 71.9 63.5 115.9l3 2.9V725zM885.8 745h-110V561c0-0.8 0.1-19.1 9-38.3 8.5-18.2 26.6-40.7 64.7-43.8 17.2-1.4 37.1 1.3 59.2 8l1.2 0.4 1.1 0.7c24.2 14.8 38.5 35.4 41.2 59.7 4.2 37.4-18.7 82.1-66.4 129.5V745z m-90-20h70v-56.2l3-2.9c45.1-44 67.1-84.1 63.5-115.9-2-17.8-12.3-32.7-30.7-44.2-19.2-5.7-36.2-8-50.5-6.8-22.9 1.9-39.1 12.8-48.2 32.3-6.9 14.9-7.1 29.7-7.1 29.8V725z" fill="" p-id="33359"></path><path d="M794 745H502.4v-94.6c0-26.8 21.8-48.6 48.6-48.6h194.4c26.8 0 48.6 21.8 48.6 48.6V745z m-271.6-20H774v-74.6c0-15.8-12.8-28.6-28.6-28.6H551c-15.8 0-28.6 12.8-28.6 28.6V725z" fill="" p-id="33360"></path><path d="M784 745c-5.5 0-10-4.5-10-10v-84.6c0-15.8-12.8-28.6-28.6-28.6H551c-15.8 0-28.6 12.8-28.6 28.6V735c0 5.5-4.5 10-10 10s-10-4.5-10-10v-84.6c0-26.8 21.8-48.6 48.6-48.6h194.4c26.8 0 48.6 21.8 48.6 48.6V735c0 5.5-4.5 10-10 10z" fill="" p-id="33361"></path><path d="M784 745c-5.5 0-10-4.5-10-10v-84.6c0-15.8-12.8-28.6-28.6-28.6H551c-15.8 0-28.6 12.8-28.6 28.6V735c0 5.5-4.5 10-10 10s-10-4.5-10-10v-84.6c0-26.8 21.8-48.6 48.6-48.6h194.4c26.8 0 48.6 21.8 48.6 48.6V735c0 5.5-4.5 10-10 10z" fill="" p-id="33362"></path><path d="M794 745H502.4v-94.6c0-9.6 2.8-18.9 8.1-26.9 9-13.6 24.2-21.7 40.5-21.7h194.4c16.3 0 31.4 8.1 40.5 21.7 5.3 8 8.1 17.3 8.1 26.9V745z m-271.6-20H774v-74.6c0-5.7-1.7-11.2-4.8-15.8-5.3-8-14.2-12.8-23.8-12.8H551c-9.6 0-18.5 4.8-23.8 12.8-3.1 4.7-4.8 10.2-4.8 15.8V725z" fill="" p-id="33363"></path><path d="M522.4 745H229v-94.5c0-9.7 2.8-19 8.2-27.1 9.1-13.6 24.2-21.7 40.5-21.7h195.9c16.3 0 31.5 8.1 40.5 21.7 5.3 8 8.2 17.3 8.2 26.9V745zM249 725h253.4v-74.6c0-5.7-1.7-11.1-4.8-15.8-5.4-8-14.3-12.8-23.9-12.8h-196c-9.6 0-18.5 4.8-23.9 12.8-3.2 4.7-4.8 10.2-4.8 16V725z" fill="" p-id="33364"></path><path d="M885.8 784.7H139V725h746.8v59.7z m-726.8-20h706.8V745H159v19.7zM363 455.5c-2.6 0-5.1-1-7.1-2.9l-53-53c-3.9-3.9-3.9-10.2 0-14.1 3.9-3.9 10.2-3.9 14.1 0l53 53c3.9 3.9 3.9 10.2 0 14.1-1.9 1.9-4.4 2.9-7 2.9z" fill="" p-id="33365"></path><path d="M310 455.5c-2.6 0-5.1-1-7.1-2.9-3.9-3.9-3.9-10.2 0-14.1l53-53c3.9-3.9 10.2-3.9 14.1 0 3.9 3.9 3.9 10.2 0 14.1l-53 53c-1.9 1.9-4.5 2.9-7 2.9zM538.9 455.5c-2.6 0-5.1-1-7.1-2.9l-53-53c-3.9-3.9-3.9-10.2 0-14.1 3.9-3.9 10.2-3.9 14.1 0l53 53c3.9 3.9 3.9 10.2 0 14.1-1.9 1.9-4.4 2.9-7 2.9z" fill="" p-id="33366"></path><path d="M485.9 455.5c-2.6 0-5.1-1-7.1-2.9-3.9-3.9-3.9-10.2 0-14.1l53-53c3.9-3.9 10.2-3.9 14.1 0s3.9 10.2 0 14.1l-53 53c-1.9 1.9-4.5 2.9-7 2.9zM716.8 455.5c-2.6 0-5.1-1-7.1-2.9l-53-53c-3.9-3.9-3.9-10.2 0-14.1 3.9-3.9 10.2-3.9 14.1 0l53 53c3.9 3.9 3.9 10.2 0 14.1-1.8 1.9-4.4 2.9-7 2.9z" fill="" p-id="33367"></path><path d="M663.8 455.5c-2.6 0-5.1-1-7.1-2.9-3.9-3.9-3.9-10.2 0-14.1l53-53c3.9-3.9 10.2-3.9 14.1 0s3.9 10.2 0 14.1l-53 53c-1.9 1.9-4.4 2.9-7 2.9z" fill="" p-id="33368"></path></svg>