<?xml version="1.0" standalone="no"?><!DOCTYPE svg PUBLIC "-//W3C//DTD SVG 1.1//EN" "http://www.w3.org/Graphics/SVG/1.1/DTD/svg11.dtd"><svg t="1626359740878" class="icon" viewBox="0 0 1024 1024" version="1.1" xmlns="http://www.w3.org/2000/svg" p-id="9952" xmlns:xlink="http://www.w3.org/1999/xlink" width="16" height="16"><defs><style type="text/css"></style></defs><path d="M927.889035 428.632267c19.764136-11.073196 31.107485-28.77844 31.118741-48.589648 0.011256-19.817348-11.31879-37.546128-31.095205-48.64286L560.281633 125.151371c-27.001981-15.155165-69.650313-15.136745-96.534614-0.00614L96.116081 331.388503c-19.787672 11.084453-31.129998 28.814256-31.124881 48.63672s11.354606 37.541011 31.107485 48.589648l102.747105 57.648978c-0.065492 0.884137-0.265036 1.728364-0.265036 2.629897l0 274.010701c0 2.029216 0.169869 4.01136 0.49835 5.947456 6.897084 92.851735 161.142074 141.389194 313.029366 141.389194 153.575748 0 309.568545-49.628304 313.193095-144.520511 0.070608-0.927115 0.105401-1.865487 0.105401-2.815115l0-274.010701c0-0.895393-0.198521-1.735527-0.26299-2.615571L927.889035 428.632267zM499.029594 187.981349c1.653663-0.932232 6.251378-2.50403 12.973476-2.50403 5.876847 0 10.755971 1.260713 12.995989 2.51631l342.259084 192.020338L524.986779 572.050678c-1.653663 0.927115-6.251378 2.50403-12.984732 2.50403-5.888104 0-10.768251-1.260713-12.995989-2.51017L156.746974 380.007827 499.029594 187.981349zM753.339604 761.051239c-0.023536 0.49221-0.034792 0.973164-0.047072 1.466398-0.281409 26.673499-92.065835 75.656097-241.185085 75.656097s-240.914932-48.982598-241.202481-75.656097c-0.017396-1.325182-0.105401-2.62785-0.257873-3.917216L270.647093 526.549368 463.74702 634.892935c13.476943 7.565303 30.614252 11.729136 48.25605 11.729136 17.653055 0 34.790364-4.169973 48.25605-11.729136l193.081507-108.329241L753.340627 761.051239z" p-id="9953"></path><path d="M917.789003 458.397175c-19.905352 0-36.033681 16.134469-36.033681 36.033681l0 286.068318c0 19.905352 16.128329 36.033681 36.033681 36.033681s36.033681-16.128329 36.033681-36.033681L953.822684 494.429833C953.822684 474.53062 937.694355 458.397175 917.789003 458.397175z" p-id="9954"></path></svg>