<?xml version="1.0" standalone="no"?><!DOCTYPE svg PUBLIC "-//W3C//DTD SVG 1.1//EN" "http://www.w3.org/Graphics/SVG/1.1/DTD/svg11.dtd"><svg t="1626108718598" class="icon" viewBox="0 0 1024 1024" version="1.1" xmlns="http://www.w3.org/2000/svg" p-id="4019" xmlns:xlink="http://www.w3.org/1999/xlink" width="16" height="16"><defs><style type="text/css"></style></defs><path d="M626.37568 402.5088c-14.46912-5.25824-14.70976-11.48928-13.57824-18.51392 13.96736-86.5024-5.12512-167.19872-17.39264-206.85824a21.37088 21.37088 0 0 0 9.09824-17.47968v-40.52992c0-34.54976-28.1088-62.65344-62.65344-62.65344H482.15552c-34.54976 0-62.65344 28.10368-62.65344 62.65344v40.52992c0 7.22944 3.6096 13.5936 9.09824 17.47456-12.26752 39.66464-31.36 120.36096-17.39776 206.86336 1.13152 7.02976 0.89088 13.25568-13.60896 18.51392-43.33056 15.75424-72.44288 58.44992-72.44288 106.22976v396.14976c0 34.5344 28.1088 62.63808 62.65856 62.63808h248.38656c34.54464 0 62.65344-28.10368 62.65344-62.6432V508.73856c0-47.77984-29.12768-90.47552-72.4736-106.22976z m-258.39616 283.96544v-119.5008h288.03584v230.56384H367.97952v-111.06304zM462.33088 119.13216a19.84512 19.84512 0 0 1 19.82464-19.82464h59.68896a19.84512 19.84512 0 0 1 19.81952 19.82464v19.11296H462.33088v-19.11296z m-50.10944 323.64032c31.13472-11.29472 46.16192-35.20512 41.25696-65.6128-13.63456-84.49536 8.6784-165.23264 18.90304-196.08576h79.26272c10.24512 30.76096 32.5632 111.26272 18.88256 196.0704-4.92032 30.40768 10.10688 54.3232 41.22624 65.62816 26.48064 9.62048 44.26752 36.12672 44.26752 65.96096v15.4112H367.97952v-15.40608c0-29.83936 17.78176-56.3456 44.24192-65.96608z m223.9744 481.92H387.80928a19.84512 19.84512 0 0 1-19.82976-19.8144v-64.512h288.03584v64.512a19.83488 19.83488 0 0 1-19.81952 19.8144z" fill="#13227a" p-id="4020"></path></svg>