<?xml version="1.0" standalone="no"?><!DOCTYPE svg PUBLIC "-//W3C//DTD SVG 1.1//EN" "http://www.w3.org/Graphics/SVG/1.1/DTD/svg11.dtd"><svg t="1626356207868" class="icon" viewBox="0 0 1024 1024" version="1.1" xmlns="http://www.w3.org/2000/svg" p-id="17973" xmlns:xlink="http://www.w3.org/1999/xlink" width="16" height="16"><defs><style type="text/css"></style></defs><path d="M932.738995 899.547547c-3.713578-6.91141-11.296277-10.110265-19.291368-8.046257-10.677177 2.707668-21.252023 5.544273-31.875988 8.30413-3.663436 0.954745-7.324826 1.882883-11.090593 2.836605-22.437012-79.408561-44.771693-158.454872-67.156516-237.501182 2.216481-1.753947 4.177136-3.197832 6.085602-4.822842 8.66638-7.427156 15.371082-16.505929 21.199835-26.330692 8.716522-14.751982 14.905478-30.638811 19.549242-47.170323 9.335622-33.064047 12.688997-66.951855 13.254885-101.174284 0.310062-21.147646-0.463558-42.270732-1.958608-63.36619-1.134847-15.9646-2.322905-31.928177-4.126994-47.816029-1.960655-17.252943-4.487198-34.43016-7.169283-51.579749-3.302209-21.251-7.892761-42.218544-13.875009-62.875003-16.506952-56.893778-37.396725-112.160499-60.813041-166.44894-0.929162-2.166339-2.065032-4.25593-3.353374-6.242168-10.057053-15.680121-29.503964-24.784476-50.857295-18.825764-23.624047 6.601348-47.300282 12.894681-70.973448 19.34151-34.146705 9.258874-68.242244 18.568914-102.386902 27.750017-21.147646 5.699816-33.269731 24.449855-33.733289 42.141796-0.104377 3.842515 0.360204 7.710612 0.515746 11.579733 0.773619 15.242146 2.629897 30.40652 5.054109 45.440935 2.835581 17.615193 6.033413 35.20378 9.335622 52.741201 3.919263 20.47738 8.251941 40.876989 14.44192 60.813041 13.307074 42.553165 29.142737 84.127026 46.680159 125.056204 13.049201 30.508851 27.079752 60.555168 43.998073 89.104387 14.804171 25.015743 30.535457 49.361221 49.001017 71.799256 10.986215 13.384845 22.900569 25.89374 36.725436 36.286438 11.707646 8.794293 24.345478 15.680121 38.736233 18.697851 3.765767 0.799202 7.53051 1.212618 11.709693 1.88186 22.590508 79.820953 45.183062 159.822009 67.827805 239.977583-2.424212 0.670266-4.590552 1.26276-6.705726 1.805112-16.093537 4.230348-32.18605 8.381901-48.227398 12.71458-7.377014 1.985214-12.122085 8.27957-12.277628 15.551184-0.153496 7.814989 4.074805 14.029528 11.296277 16.711614 0.671289 0.258896 1.341554 0.541329 2.062985 0.825808l6.655584 0c6.240121-1.727341 12.481266-3.559059 18.775622-5.209652 36.775578-9.645684 73.55218-19.23918 110.38097-28.807093 5.208629-1.341554 9.697873-3.66139 12.379958-8.588609 0.823761-1.470491 1.341554-3.120061 2.010797-4.693906l0-7.504928C933.923984 902.4609 933.460426 900.940266 932.738995 899.547547L932.738995 899.547547zM562.547745 265.163195c-3.765767-21.405519-7.788383-42.759873-11.038404-64.24214-1.958608-13.075807-2.835581-26.331715-3.971451-39.510876-0.669242-7.117095 2.837628-11.528568 10.0591-13.488199 20.476357-5.545296 40.953737-11.063987 61.430094-16.634866 36.365232-9.851369 72.780607-19.729344 109.195981-29.607318 1.856277-0.490164 3.816932-1.031493 5.726421-1.109264 5.311982-0.257873 9.231245 2.321882 11.346419 7.324826 7.221472 17.510816 14.649652 34.971489 21.61325 52.585659 12.68695 32.134885 24.137747 64.733327 34.144658 97.847515 0.36225 1.290389 0.671289 2.605338 1.187035 4.359284-79.071893 5.260817-157.834748 10.496052-236.857523 15.783475C564.405045 273.906324 563.321364 269.573645 562.547745 265.163195L562.547745 265.163195zM468.517161 114.704438C411.624407 99.101065 354.629321 83.729983 297.684378 68.282153c-4.022617-1.083681-8.098445-1.985214-12.121062-2.991124l-6.653537 0c-0.928139 0.257873-1.857301 0.618077-2.785439 0.773619-16.918321 2.88777-28.832675 12.224416-35.69292 28.16241-0.515746 1.133823-0.928139 2.320858-1.443885 3.455705-12.431124 28.704762-23.933085 57.821917-34.455743 87.273692-10.006911 27.724435-19.394722 55.628972-26.925233 84.127026-11.089569 41.882899-16.814967 84.720543-20.6319 127.815037-1.547239 17.176195-2.269693 34.455743-3.094478 51.683103-1.39272 27.389814-0.928139 54.753021 2.114151 82.038458 2.217505 19.806091 5.622044 39.330774 11.296277 58.414411 5.622044 18.877953 13.152555 36.905538 24.552186 53.075823 6.447852 9.232269 13.823843 17.588587 23.624047 23.340591 0.206708 0.103354 0.257873 0.412392 0.412392 0.825808-21.766746 77.626985-43.636846 155.384953-65.558112 233.296417-1.186012-0.257873-1.908466-0.38681-2.63092-0.567935-12.069897-3.146667-24.13877-6.189979-36.106336-9.44-10.109242-2.758834-18.568914 3.585665-20.735253 11.038404-0.206708 0.928139-0.928139 1.701758-1.39272 2.553149l0 5.26184c0.412392 0.592494 1.031493 1.133823 1.238201 1.805112 2.114151 7.092535 7.066953 10.70276 13.926174 12.482289 37.911448 9.826809 75.822896 19.806091 113.734344 29.736255 4.848425 1.263783 9.748015 2.656503 14.648628 3.816932 10.93505 2.553149 20.838607-5.106298 20.940938-16.144702 0.103354-7.968485-4.848425-14.494109-12.791327-16.634866-13.513782-3.610224-26.976398-7.040347-40.439014-10.573823-5.983271-1.572822-11.863189-3.145643-18.156522-4.822842 22.385846-79.58764 44.668339-158.918429 66.950831-238.068094 3.094478-0.567935 5.776563-1.00591 8.407484-1.572822 14.287401-2.992147 26.76969-9.774621 38.427194-18.441001 14.029528-10.444886 26.048259-22.978341 37.034475-36.518728 25.841551-31.79924 47.40159-66.436108 66.125023-102.928231 19.498076-38.194904 35.951817-77.80811 51.064003-117.990275 13.876032-36.878932 26.821879-74.068949 34.455743-112.960725 7.42818-37.653575 14.751982-75.280544 17.124006-113.65555 0.310062-4.848425 0.6191-9.852392-0.308015-14.57188C498.227834 132.319631 487.087099 119.758548 468.517161 114.704438L468.517161 114.704438zM469.187427 159.681816c-0.87595 10.083659-1.496074 20.193925-2.629897 30.252001-2.785439 23.442922-6.963599 46.679136-11.55415 69.838601-0.257873 1.341554-0.618077 2.682086-0.980327 4.384867-78.659501-5.235235-156.957775-10.444886-235.56611-15.680121 0.825808-2.759857 1.444908-5.132904 2.217505-7.504928 14.184047-43.972491 30.484292-87.092567 48.743144-129.466654 0.567935-1.263783 1.083681-2.527566 1.599428-3.791349 2.682086-6.653537 7.995091-9.413394 14.855336-7.659447 5.415336 1.367137 10.728342 2.888793 16.093537 4.332678 52.353368 14.210653 104.655572 28.420283 156.957775 42.605354 2.992147 0.799202 5.622044 1.908466 7.633864 4.332678C468.517161 153.750733 469.4453 156.536172 469.187427 159.681816L469.187427 159.681816zM469.187427 159.681816" p-id="17974"></path></svg>