<?xml version="1.0" standalone="no"?><!DOCTYPE svg PUBLIC "-//W3C//DTD SVG 1.1//EN" "http://www.w3.org/Graphics/SVG/1.1/DTD/svg11.dtd"><svg t="1626108721806" class="icon" viewBox="0 0 1024 1024" version="1.1" xmlns="http://www.w3.org/2000/svg" p-id="4165" xmlns:xlink="http://www.w3.org/1999/xlink" width="16" height="16"><defs><style type="text/css"></style></defs><path d="M14.2 5.5c0.6 0 1 0.5 1 1v7.7c0 0.6-0.4 1-1 1H1.8c-0.6 0-1-0.5-1-1V6.5c0-0.6 0.4-1 1-1h12.4m0-0.5H1.8C1 5 0.3 5.7 0.3 6.5v7.7c0 0.8 0.7 1.5 1.5 1.5h12.3c0.8 0 1.5-0.7 1.5-1.5V6.5c0.1-0.8-0.6-1.5-1.4-1.5z" fill="#EF4F4F" p-id="4166"></path><path d="M6.5 10.1h3v0.5h-3z" fill="#EF4F4F" p-id="4167"></path><path d="M7.7 8.8h0.5v3h-0.5zM9.2 3.1c0.3 0 0.5 0.2 0.5 0.5V5H6.2V3.6c0-0.3 0.2-0.5 0.5-0.5h2.5m0-0.5H6.7c-0.6 0-1 0.4-1 1v1.9h4.5V3.6c0-0.5-0.4-1-1-1z" fill="#EF4F4F" p-id="4168"></path><path d="M207.1 100m-36 0a36 36 0 1 0 72 0 36 36 0 1 0-72 0Z" fill="#EF4F4F" p-id="4169"></path><path d="M441.6 100m-36 0a36 36 0 1 0 72 0 36 36 0 1 0-72 0Z" fill="#EF4F4F" p-id="4170"></path><path d="M471.8 959.6h-29.9c-72.7 0-131.9-59.2-131.9-131.9l-0.4-257.3H339l0.4 257.3c0 56.6 46 102.6 102.6 102.6h29.9c27.5 0 53.2-10.7 72.6-30.1 19.4-19.4 30-45.2 30-72.6l-0.5-236.5c-0.1-35.2 13.6-68.4 38.5-93.3 25-25 58.1-38.7 93.4-38.7h67.9c72.7 0 131.9 59.2 131.9 131.9v176.4h-29.3V591c0-56.6-46-102.6-102.6-102.6h-67.9c-27.4 0-53.2 10.7-72.6 30.1-19.4 19.4-30.1 45.2-30 72.6l0.3 236.4c0.1 35.2-13.6 68.4-38.5 93.4s-58 38.7-93.3 38.7z" fill="#EF4F4F" p-id="4171"></path><path d="M890.3 785.4c16.2 0 29.3 13.1 29.3 29.3 0 16.2-13.1 29.3-29.3 29.3-16.2 0-29.3-13.1-29.3-29.3 0-16.1 13.2-29.3 29.3-29.3m0-29.3c-32.4 0-58.6 26.2-58.6 58.6 0 32.4 26.2 58.6 58.6 58.6 32.4 0 58.6-26.2 58.6-58.6 0.1-32.3-26.2-58.6-58.6-58.6zM324.4 585.1c-70.1 0-214.4-56.6-219.8-130.8-2-27.9-8.2-70.4-14.1-111.6-6.5-45.2-13.3-91.9-15.2-123.1-2.1-33.4 9.8-65.7 33.4-90.9 25.1-26.7 60.5-42 97.1-42V116c-28.6 0-56.2 11.9-75.7 32.7-18 19.2-27.1 43.7-25.5 69 1.9 29.9 8.5 76.1 15 120.7 6.3 43.6 12.2 84.7 14.3 113.7 3.6 50.4 126.5 103.6 190.5 103.6s186.9-53.3 190.5-103.6c2.1-29 8.1-70.1 14.3-113.7 6.4-44.6 13.1-90.7 15-120.7 1.5-24.8-7.5-49.1-25.5-68.2-20-21.2-48.1-33.4-77.1-33.4V86.9c37.1 0 73 15.5 98.5 42.7 23.6 25.1 35.4 57.1 33.4 90.1-1.9 31.1-8.7 77.8-15.2 123.1-6 41.1-12.1 83.7-14.1 111.6-5.4 74.2-149.7 130.7-219.8 130.7z" fill="#EF4F4F" p-id="4172"></path></svg>