<?xml version="1.0" standalone="no"?><!DOCTYPE svg PUBLIC "-//W3C//DTD SVG 1.1//EN" "http://www.w3.org/Graphics/SVG/1.1/DTD/svg11.dtd"><svg t="1626356222191" class="icon" viewBox="0 0 1024 1024" version="1.1" xmlns="http://www.w3.org/2000/svg" p-id="18417" xmlns:xlink="http://www.w3.org/1999/xlink" width="16" height="16"><defs><style type="text/css"></style></defs><path d="M286.976 816.5888c18.4832 0 37.12-5.4784 53.2992-16.64l328.4992-226.3552c126.8224-14.0288 225.792-121.8048 225.792-252.2624 0-139.9808-113.8688-253.8496-253.8496-253.8496-137.3696 0-249.5488 109.7216-253.6448 246.1184L170.0352 628.736c-24.9856 36.3008-21.1968 85.3504 8.8064 117.4016-12.1344 21.1456-29.5936 61.6448-16.6912 104.2432 12.3392 40.96 47.9744 71.5776 105.8816 91.0336 27.904 9.3696 62.1568 14.1312 98.8672 14.1312 29.5936 0 60.7232-3.072 91.392-9.3184 78.3872-15.872 145.2032-50.2272 188.16-96.768a30.6944 30.6944 0 0 0-1.7408-43.4176 30.74048 30.74048 0 0 0-43.4176 1.7408c-77.7216 84.224-237.7216 100.9152-313.6512 75.3664-26.0096-8.7552-58.624-24.5248-66.56-50.3296-4.096-13.312-1.2288-28.0064 3.4816-40.2944 17.6128 15.872 39.936 24.064 62.4128 24.064z m353.792-687.6672c106.0864 0 192.4096 86.3232 192.4096 192.4096 0 101.0688-78.336 184.1152-177.4592 191.7952h-0.1024c-2.6112 0.2048-5.0176 0.3584-7.3216 0.4608-2.5088 0.1024-5.0176 0.2048-7.5776 0.2048-3.2768 0-6.5536-0.1024-9.7792-0.256-100.6592-5.12-181.6576-88.576-182.5792-190.4128v-0.1024c0-0.5632-0.0512-1.1264-0.0512-1.6896 0.0512-106.0864 86.3744-192.4096 192.4608-192.4096zM220.672 663.6032l179.712-260.9152c26.6752 78.6432 90.9312 140.0832 171.264 162.8672 0.1536 0.0512 0.256 0.1024 0.4096 0.1536l-266.5984 183.7056a32.4608 32.4608 0 0 1-41.728-4.0448l-39.5776-40.5504c-10.752-11.1616-12.2368-28.4672-3.4816-41.216z" fill="#FF6C39" p-id="18418"></path><path d="M639.2832 463.4624c3.4816 1.28 7.0144 1.8432 10.496 1.8432 12.544 0 24.32-7.7824 28.8768-20.2752a30.74048 30.74048 0 0 0-18.3808-39.3728c-78.5408-28.5184-100.7616-96.6144-101.7856-99.8912a30.72 30.72 0 0 0-38.144-20.5312 30.65344 30.65344 0 0 0-20.6848 38.1952c1.1264 4.096 30.9248 100.5568 139.6224 140.032zM396.5952 602.3168c18.1248 0 32.8192-14.6944 32.8192-32.768s-14.6944-32.768-32.8192-32.768-32.768 14.6944-32.768 32.768 14.6432 32.768 32.768 32.768z" fill="#FF6C39" p-id="18419"></path></svg>