<?xml version="1.0" standalone="no"?><!DOCTYPE svg PUBLIC "-//W3C//DTD SVG 1.1//EN" "http://www.w3.org/Graphics/SVG/1.1/DTD/svg11.dtd"><svg class="icon" width="16px" height="15.98px" viewBox="0 0 1025 1024" version="1.1" xmlns="http://www.w3.org/2000/svg"><path fill="#cdcdcd" d="M1002.762971 36.961524C1001.348876 34.791619 999.66659 32.792381 997.764876 30.915048 980.113067 11.995429 955.146971 0 927.279543 0L720.943543 0C700.756114 0 684.372114 16.359619 684.372114 36.571429 684.372114 56.758857 700.756114 73.142857 720.943543 73.142857L914.211352 73.142857 617.4464 467.358476 511.023543 366.372571C503.489829 359.204571 493.249829 355.766857 482.863543 356.449524 472.477257 357.302857 462.944305 362.544762 456.702781 370.834286L7.41059 965.36381C-4.779886 981.479619-1.585981 1004.422095 14.529829 1016.58819 21.112686 1021.586286 28.865829 1024 36.545829 1024 47.614781 1024 58.537448 1018.977524 65.729829 1009.468952L490.348495 447.585524 596.868876 548.644571C604.40259 555.812571 614.545067 559.37219 625.077638 558.592 635.463924 557.714286 644.972495 552.472381 651.2384 544.134095L950.855924 146.090667 950.855924 348.306286C950.855924 368.493714 967.239924 384.877714 987.427352 384.877714 1007.614781 384.877714 1023.998781 368.493714 1023.998781 348.306286L1023.998781 96.670476C1023.998781 74.044952 1015.855543 53.467429 1002.762971 36.961524ZM36.572648 789.845333C56.760076 789.845333 73.144076 773.461333 73.144076 753.273905L73.144076 157.403429C73.144076 144.384 83.72541 133.827048 96.696076 133.827048L468.822552 133.827048C489.034362 133.827048 505.393981 117.443048 505.393981 97.255619 505.393981 77.06819 489.034362 60.68419 468.822552 60.68419L96.696076 60.68419C43.374933 60.68419 0.001219 104.057905 0.001219 157.403429L0.001219 753.273905C0.001219 773.461333 16.385219 789.845333 36.572648 789.845333ZM987.42979 571.22621C967.242362 571.22621 950.858362 587.61021 950.858362 607.797638L950.858362 927.285638C950.858362 940.280686 940.277029 950.837638 927.281981 950.837638L326.315886 950.837638C306.128457 950.837638 289.744457 967.221638 289.744457 987.409067 289.744457 1007.596495 306.128457 1023.980495 326.315886 1023.980495L927.281981 1023.980495C980.627505 1023.980495 1024.001219 980.606781 1024.001219 927.285638L1024.001219 607.797638C1024.001219 587.61021 1007.617219 571.22621 987.42979 571.22621Z" /></svg>