<?xml version="1.0" standalone="no"?><!DOCTYPE svg PUBLIC "-//W3C//DTD SVG 1.1//EN" "http://www.w3.org/Graphics/SVG/1.1/DTD/svg11.dtd"><svg t="1626358476959" class="icon" viewBox="0 0 1024 1024" version="1.1" xmlns="http://www.w3.org/2000/svg" p-id="26522" xmlns:xlink="http://www.w3.org/1999/xlink" width="16" height="16"><defs><style type="text/css"></style></defs><path d="M434.579394 247.358061C291.995152 303.833212 218.608485 361.456485 214.481455 420.243394c-4.142545 58.802424 10.457212 101.174303 43.799272 127.162182h508.89697c40.618667-47.383273 55.808-86.388364 45.552485-116.984243-15.39103-45.924848-87.908848-141.156848-164.926061-161.171394-51.355152-13.34303-75.310545-17.314909-71.835151-11.900121l-64.310303 44.06303L434.579394 247.358061z" fill="#F8D02D" p-id="26523"></path><path d="M739.110788 530.959515l-28.982303-11.682909a21.519515 21.519515 0 0 0-15.980606-0.062061l-32.209455 12.675879-49.431272-13.420606a21.597091 21.597091 0 0 0-11.853576 0.170667l-44.311273 13.28097-37.655273-13.017213a21.597091 21.597091 0 0 0-14.646303 0.201697l-34.055757 12.846546-47.740122-13.374061a21.705697 21.705697 0 0 0-12.815515 0.372364l-38.182788 13.141333-43.799272-13.187879a21.566061 21.566061 0 0 0-13.653334 0.403394l-30.595878 11.23297C246.504727 514.839273 229.298424 492.187152 229.298424 461.622303c0-75.403636 90.329212-164.507152 208.259879-192.341333a80.027152 80.027152 0 0 0 74.084849 50.082909c33.512727 0 62.231273-20.759273 74.100363-50.11394 117.915152 27.880727 208.244364 116.968727 208.244364 192.372364 0 30.828606-17.532121 53.589333-54.877091 69.321697z m-19.006061 297.316849h-24.312242l22.652121-259.149576 13.560242 5.461333c4.514909 1.815273 9.464242 1.815273 14.118788 0.434424 0.512-0.124121 1.05503-0.062061 1.567031-0.263757l4.096-1.551515-31.68194 255.069091z m-107.613091 0l11.465697-262.004364 33.574788 9.122909c4.499394 1.210182 9.231515 0.930909 13.560243-0.729212l11.962181-4.732121-22.59006 258.327272h-47.972849z m-35.219394 0H525.032727V566.737455l23.769212 8.22303c4.282182 1.473939 8.921212 1.582545 13.24994 0.263757l26.624-7.974787-11.419152 261.026909z m-90.670545 0h-40.572121l-11.434667-261.461334 13.405091 8.533334c4.406303 1.256727 9.107394 1.05503 13.420606-0.558546l25.181091-3.025454v256.512z m-123.764364 0L340.045576 567.745939l25.444848 7.602425a21.721212 21.721212 0 0 0 13.203394-0.217212l20.712727-7.152485 11.403637 260.297697h-47.972849z m-59.640242 0l-31.402667-252.741819c2.947879 1.008485 6.050909 1.132606 9.122909 0.806788 1.799758-0.170667 3.599515-0.341333 5.306182-0.946424l18.571637-6.842182 22.714181 259.723637H303.197091z m178.269091-609.807516a36.708848 36.708848 0 0 1 30.17697-15.825454c12.505212 0 23.52097 6.268121 30.176969 15.825454 4.142545 5.926788 6.62497 13.141333 6.62497 20.96097a36.460606 36.460606 0 0 1-7.695515 22.264243 36.646788 36.646788 0 0 1-29.106424 14.537697 36.662303 36.662303 0 0 1-29.09091-14.537697 36.476121 36.476121 0 0 1-7.71103-22.264243c0-7.819636 2.482424-15.034182 6.640485-20.96097z m258.389333 76.970667c-43.690667-34.241939-95.138909-57.747394-149.519515-69.523394-6.438788-37.639758-39.222303-66.404848-78.692848-66.404848-39.45503 0-72.238545 28.765091-78.677334 66.404848-54.396121 11.776-105.844364 35.281455-149.519515 69.523394C222.533818 343.210667 186.181818 405.333333 186.181818 461.622303c0 37.034667 14.196364 64.403394 38.524121 84.666182l38.043152 306.222545a21.53503 21.53503 0 0 0 21.395394 18.88194H739.141818c10.860606 0 20.045576-8.067879 21.395394-18.88194l38.027636-306.222545c24.343273-20.262788 38.539636-47.631515 38.539637-84.650667 0-56.28897-36.367515-118.411636-97.28-166.167273z" fill="#444444" p-id="26524"></path><path d="M684.125091 353.342061l-39.734303-19.859394a19.828364 19.828364 0 0 0-26.65503 8.890181c-4.902788 9.790061-0.930909 21.721212 8.890181 26.624l39.718788 19.90594a19.905939 19.905939 0 0 0 26.655031-8.890182 19.874909 19.874909 0 0 0-8.874667-26.670545M498.812121 371.851636l-34.536727 43.644122a19.859394 19.859394 0 0 0 31.169939 24.653575l34.521212-43.644121a19.859394 19.859394 0 1 0-31.154424-24.653576M363.426909 332.613818l-37.763879 23.381334a19.859394 19.859394 0 0 0 10.488243 36.770909c3.568485 0 7.183515-0.977455 10.441697-2.994425l37.763878-23.412363a19.859394 19.859394 0 1 0-20.929939-33.745455" fill="#444444" p-id="26525"></path></svg>