<?xml version="1.0" standalone="no"?><!DOCTYPE svg PUBLIC "-//W3C//DTD SVG 1.1//EN" "http://www.w3.org/Graphics/SVG/1.1/DTD/svg11.dtd"><svg t="1626358464702" class="icon" viewBox="0 0 1024 1024" version="1.1" xmlns="http://www.w3.org/2000/svg" p-id="26060" xmlns:xlink="http://www.w3.org/1999/xlink" width="16" height="16"><defs><style type="text/css"></style></defs><path d="M696 140c6.6 0 12 5.4 12 12v72H316v-72c0-6.6 5.4-12 12-12h368m0-12H328c-13.3 0-24 10.7-24 24v84h416v-84c0-13.3-10.7-24-24-24z" fill="#4C3800" p-id="26061"></path><path d="M713.2 236.7l52.1 98c7 13.2 10.8 28.2 10.8 43.2V836c0 26.5-21.5 48-48 48h-74l-1.9-511.3c0-11.7 2.8-23.3 8.1-33.7l52.9-102.3m-7-12.7l-56.7 109.6c-6.3 12.1-9.5 25.6-9.5 39.2l2 523.2h86c33.1 0 60-26.9 60-60V377.9c0-17-4.2-33.8-12.2-48.8L720 224h-13.8z" fill="#4C3800" p-id="26062"></path><path d="M700 236l-46.5 87.5c-8.9 16.7-13.6 35.5-13.6 54.4V884H296c-26.5 0-48-21.5-48-48V377.9c0-15 3.7-29.9 10.8-43.2l52.5-98.7H700m20-12H304l-55.8 105.1c-8 15-12.2 31.8-12.2 48.8V836c0 33.1 26.9 60 60 60h356V377.9c0-17 4.2-33.8 12.2-48.8L720 224z" fill="#4C3800" p-id="26063"></path><path d="M646.6 352h-400v12h400v-12zM570 448c9.9 0 18 8.1 18 18v132c0 9.9-8.1 18-18 18H310c-9.9 0-18-8.1-18-18V466c0-9.9 8.1-18 18-18h260m0-12H310c-16.6 0-30 13.4-30 30v132c0 16.6 13.4 30 30 30h260c16.6 0 30-13.4 30-30V466c0-16.6-13.4-30-30-30z" fill="#4C3800" p-id="26064"></path><path d="M379.9 543.2c0 9.4-0.4 14.9-1.2 16.6-0.9 2-2.2 3-3.8 3-2.9 0-4.3-1.4-4.3-4.3 0-2.6 0.2-6.5 0.7-11.6 0.4-5.3 0.6-9.2 0.6-11.8v-4.4c0.1-2 0.1-3.4 0.1-4.4 0-9.6-0.7-14.5-2-14.5-0.9 0-3 1.5-6.2 4.6-4.7 4.6-7.8 7.4-9.3 8.6-3.8 3.1-7 4.6-9.5 4.6-2.3 0-5.4-1.4-9.2-4.1-2-1.5-5-4.1-9.1-7.7-3.1-2.7-4.9-4.1-5.4-4.1-0.3 0-0.7 1.3-1 3.8-0.3 3.3-0.4 7-0.4 11.3v10.4c0 9.5 0.7 16.4 2.1 20.7 0.8 2.8 1.3 4.4 1.3 4.9 0 2.3-1.2 3.5-3.7 3.5-2.7 0-4.5-2.3-5.5-7-1.3-5.8-2-13.2-2-22.4v-13.8c0-9 0.6-15 1.8-18.1 1.2-3.3 3-5 5.6-5 1.9 0 6.1 3.2 12.7 9.6 6.6 6.4 10.8 9.6 12.5 9.6 1.4 0 3.8-1.5 7.1-4.6 6.1-5.5 9.1-8.4 9.3-8.5 3.8-3.1 6.9-4.6 9.3-4.6 2.5 0 4.7 1.3 6.4 4 2 2.9 2.9 11.9 2.9 27.1v8.6zM422.6 563.1c0 1.6-1 2.7-3 3.3-3.6 1.3-8.9 2-16 2-4.6 0-8-0.5-10.1-1.6-1.8-0.8-2.6-2-2.6-3.3 0-2.4 1.3-3.6 3.9-3.6 0.5 0 1.2 0.1 2.3 0.3 1.1 0.3 2.1 0.4 3.1 0.4 0-15.7 0.7-32.6 2.1-50.6-0.7 0-1.9 0-3.6 0.1-1.6 0.1-2.6 0.1-3 0.1-3 0-4.5-1.3-4.5-3.9 0-2.3 1.5-3.6 4.5-3.8 2.8-0.2 5.1-0.3 6.8-0.3 4.4 0 9.6 0.1 15.4 0.4 2.9 0.1 4.4 1.5 4.4 4.1 0 2.5-1.5 3.7-4.4 3.7-0.8 0-2.1-0.1-3.8-0.2-1.9-0.1-3.1-0.1-3.5-0.1-1.4 17-2.1 33.9-2.1 50.6 2.5 0 4.6-0.2 6.4-0.7 1.8-0.5 3.2-0.7 4.2-0.7 2.3 0 3.5 1.2 3.5 3.8zM497.9 556.5c0 0.8-0.8 1.9-2.3 3.1-3.3 2.5-9 4.6-17.2 6.3-7 1.6-13.2 2.3-18.5 2.3-10.1 0-17.4-2.7-22-8.2-4.2-5.1-6.2-12.8-6.2-23 0-11.1 1.6-20.8 4.7-29.1 1.5-3.9 3.3-5.9 5.4-5.9 2.7 0 4 1.2 4 3.7l-1.4 4.1c-3.1 9.1-4.7 18.4-4.7 27.9 0 7.5 1.5 13.1 4.4 16.7 3.3 4.2 8.7 6.2 16 6.2 8 0 17.8-2.2 29.5-6.7 2.3-0.8 3.8-1.3 4.6-1.3 2.4 0.2 3.7 1.5 3.7 3.9zM568.4 563.2c0 3.3-1.4 4.9-4.1 4.9-2.7 0-10.1-2.7-22.4-8-10.1-4.4-18.4-9-24.9-13.6-1.1-0.7-2-1.5-2.7-2.4 0 6.2 0.1 10.2 0.2 11.9 0.1 1.1 0.2 2.7 0.5 4.7 0.2 1.6 0.3 2.7 0.3 3.3 0 2.9-1.4 4.4-4.1 4.4-2.8 0-4.3-1.8-4.5-5.5-0.4-7.9-0.6-14.3-0.6-19.1 0-13.5 0.8-25.9 2.5-37.1 0.5-3 1.8-4.5 4.1-4.5 2.5 0 3.8 1.3 3.8 3.8l-0.3 1.5c-0.3 1.2-0.5 2.4-0.6 3.7-0.7 6.4-1.1 13.9-1.3 22.4 0.5-0.7 1.3-1.5 2.3-2.3 9.8-9 19.4-16 28.8-20.9 7.9-4.2 13.3-6.3 16-6.3 2.7 0 4 1.3 4 3.8 0 1.8-1.4 3.2-4.3 4.2-13.3 4.9-25.5 11.9-36.6 20.9-3.1 2.5-4.7 4.4-4.7 5.5 0 0.9 1.9 2.4 5.8 4.6 12.7 7.2 25.5 12.6 38.5 16.2 2.9 0.6 4.3 2 4.3 3.9z" fill="#4C3800" p-id="26065"></path><path d="M381 160c-3.3 0-6 2.7-6 6v58h12v-58c0-3.3-2.7-6-6-6zM448 160c-3.3 0-6 2.7-6 6v58h12v-58c0-3.3-2.7-6-6-6zM515 160c-3.3 0-6 2.7-6 6v58h12v-58c0-3.3-2.7-6-6-6zM582 160c-3.3 0-6 2.7-6 6v58h12v-58c0-3.3-2.7-6-6-6zM649 160c-3.3 0-6 2.7-6 6v58h12v-58c0-3.3-2.7-6-6-6z" fill="#4C3800" p-id="26066"></path></svg>