<?xml version="1.0" standalone="no"?><!DOCTYPE svg PUBLIC "-//W3C//DTD SVG 1.1//EN" "http://www.w3.org/Graphics/SVG/1.1/DTD/svg11.dtd"><svg t="1626356214012" class="icon" viewBox="0 0 1024 1024" version="1.1" xmlns="http://www.w3.org/2000/svg" p-id="18119" xmlns:xlink="http://www.w3.org/1999/xlink" width="16" height="16"><defs><style type="text/css"></style></defs><path d="M164.12 405.96m-13.54 0a13.54 13.54 0 1 0 27.08 0 13.54 13.54 0 1 0-27.08 0Z" fill="" p-id="18120"></path><path d="M665.81 413.54C635.7 426 580 449.55 563.08 460.36c-22.44 14.37-28.51 28.34-32.81 41.42-9.07 27.61 6.42 57.59 34.54 66.82a53.64 53.64 0 0 0 54.06-12l10.49-10.07 2.37 13.8a9.27 9.27 0 0 1 1 0.27c28.12 9.24 58.37-5.71 67.44-33.32 4.3-13.08 7.7-27.93-1.84-52.8-4.18-10.91-17.15-34.55-32.52-60.94z" fill="#2CBF9C" p-id="18121"></path><path d="M560.89 270.61m-12.19 0a12.19 12.19 0 1 0 24.38 0 12.19 12.19 0 1 0-24.38 0Z" fill="" p-id="18122"></path><path d="M704.45 789.03m-12.19 0a12.19 12.19 0 1 0 24.38 0 12.19 12.19 0 1 0-24.38 0Z" fill="" p-id="18123"></path><path d="M560.46 224a42.17 42.17 0 0 1 13.17 2.13l292.29 96a42.18 42.18 0 0 1 26.9 53.23L749.43 811.83a42.13 42.13 0 0 1-53.23 26.9l-292.29-96A42.17 42.17 0 0 1 377 689.46L520.4 253a42.09 42.09 0 0 1 40.05-29m0-24a66.22 66.22 0 0 0-62.86 45.54L354.21 682a66.18 66.18 0 0 0 42.21 83.53l292.29 96a66.12 66.12 0 0 0 83.52-42.21l143.39-436.43a66.17 66.17 0 0 0-42.21-83.52l-292.29-96a66.21 66.21 0 0 0-20.67-3.37z" fill="" p-id="18124"></path><path d="M685.18 617.31A66.37 66.37 0 0 1 621.64 570a66.31 66.31 0 0 1-98.71-22.4 63.8 63.8 0 0 1-4.06-49.6c4.76-14.46 12-31.28 37.74-47.77 18.61-11.93 78.47-37.11 112.5-51.06 0.22-0.09 0.45-0.18 0.68-0.25a12 12 0 0 1 14.64 4.92c12.05 19.76 52 86 60.58 108.29 10.94 28.55 6.79 46.37 2 60.84-8.87 27.15-34.37 44.34-61.83 44.34z m-55.82-82.8a11.75 11.75 0 0 1 3.74 0.6 12 12 0 0 1 8.08 9.36l2.47 14.33A41.65 41.65 0 0 0 672 591.18c21.82 7.17 45.28-4.35 52.29-25.67 3.91-11.92 6.49-23.52-1.65-44.76-4.9-12.77-25.13-49-53.36-95.65-51.15 21.15-88.1 37.95-99.69 45.37-19.16 12.27-24 23.14-27.88 35a40 40 0 0 0 2.59 31.05 42.22 42.22 0 0 0 66.29 11.35l10.5-10.07a12 12 0 0 1 8.27-3.29z m-66.28-74.15z" fill="" p-id="18125"></path><path d="M610.55 617.62a12 12 0 1 1 12-12 12 12 0 0 1-12.01 12zM366.88 877.36a71.94 71.94 0 0 1-64.11-39.43L97.33 431.45a71.74 71.74 0 0 1 31.67-96.4l239.26-120.92a71.76 71.76 0 0 1 96.4 31.68l31.08 61.5a12 12 0 0 1-21.42 10.82l-31.08-61.5a47.78 47.78 0 0 0-64.16-21.08L139.83 356.47a47.75 47.75 0 0 0-21.08 64.16l205.44 406.48a47.75 47.75 0 0 0 64.1 21.11l118.42-61.34a12 12 0 0 1 11 21.31l-118.43 61.36-0.11 0.06a71.39 71.39 0 0 1-32.29 7.75z" fill="" p-id="18126"></path></svg>