<?xml version="1.0" standalone="no"?><!DOCTYPE svg PUBLIC "-//W3C//DTD SVG 1.1//EN" "http://www.w3.org/Graphics/SVG/1.1/DTD/svg11.dtd"><svg class="icon" width="16px" height="16.00px" viewBox="0 0 1024 1024" version="1.1" xmlns="http://www.w3.org/2000/svg"><path d="M297.006545 800.923152a38.632727 38.632727 0 0 1-38.586181-38.570667V392.998788h521.014303v369.338182a38.617212 38.617212 0 0 1-38.570667 38.570666H297.006545z" fill="#F8D02D" /><path d="M514.249697 667.896242c-70.904242 0-106.278788-39.889455-115.74303-77.218909-5.740606-22.574545-0.310303-36.89503 2.668606-38.524121a32.116364 32.116364 0 0 1 11.310545-2.358303c6.904242 0 13.529212 3.149576 24.622546 8.719515 16.86497 8.455758 39.920485 20.045576 77.141333 20.045576 40.494545 0 66.52897-10.24 85.53503-17.671758 13.498182-5.275152 22.279758-8.921212 32.116364-7.586909 7.354182 0.99297 10.674424 7.819636 9.867636 20.324849-2.544485 37.996606-44.807758 94.270061-127.534545 94.27006z m-4.452849-158.78206h19.378425a30.254545 30.254545 0 0 1 29.168485 22.528 163.219394 163.219394 0 0 1-44.094061 5.678545 109.769697 109.769697 0 0 1-33.869576-4.933818c3.180606-13.312 15.111758-23.272727 29.416727-23.272727z m127.503516 3.335757c-14.941091-1.939394-27.772121 1.05503-40.339394 5.476849-9.200485-28.904727-35.902061-50.036364-67.801212-50.036364h-19.378425c-31.061333 0-57.095758 20.076606-66.916848 47.817697-9.107394-3.987394-18.850909-7.13697-30.394182-7.136969-8.455758 0-16.911515 1.644606-25.863758 5.026909-24.793212 9.371152-36.801939 41.037576-29.897697 78.801454 10.627879 58.073212 63.45697 116.70497 157.540849 116.70497 109.040485 0 165.081212-79.220364 168.618667-132.778667 2.311758-34.800485-15.561697-59.888485-45.568-63.875879z" fill="#444444" /><path d="M297.006545 800.923152a38.632727 38.632727 0 0 1-38.586181-38.570667V393.014303h521.014303v369.338182a38.617212 38.617212 0 0 1-38.570667 38.570667H297.006545zM283.772121 351.77503H258.420364v-53.061818c0-16.601212 10.612364-30.657939 25.351757-36.072727v89.134545zM653.684364 218.965333v132.840728h-17.966546v-151.117576h17.966546v18.276848z m59.174788 0v132.840728h-17.966546v-151.117576h17.966546v18.276848z m66.575515 79.794425v53.061818h-25.351758V262.640485a38.508606 38.508606 0 0 1 25.351758 36.088242z m-25.351758-78.599758V180.068848c0-11.388121-9.216-20.635152-20.635151-20.635151H304.407273a20.635152 20.635152 0 0 0-20.619637 20.635151v40.075637C246.070303 226.474667 217.212121 259.258182 217.212121 298.744242v463.592728a79.872 79.872 0 0 0 79.794424 79.794424H740.848485a79.887515 79.887515 0 0 0 79.794424-79.778909V298.744242c0-39.486061-28.873697-72.269576-66.575515-78.599757z" fill="#444444" /><path d="M325.011394 351.790545h269.498182v-151.117575H325.011394z" fill="#FFFFFF" /></svg>