<?xml version="1.0" standalone="no"?><!DOCTYPE svg PUBLIC "-//W3C//DTD SVG 1.1//EN" "http://www.w3.org/Graphics/SVG/1.1/DTD/svg11.dtd"><svg t="1626358458389" class="icon" viewBox="0 0 1024 1024" version="1.1" xmlns="http://www.w3.org/2000/svg" p-id="25913" xmlns:xlink="http://www.w3.org/1999/xlink" width="16" height="16"><defs><style type="text/css"></style></defs><path d="M425.984 905.216c-32.768 0-69.632-5.12-111.616-16.384-128-37.888-210.944-120.832-245.76-247.808-77.824-333.824 224.256-460.8 357.376-499.712 123.904-36.864 312.32-30.72 430.08 50.176 67.584 46.08 104.448 109.568 111.616 190.464 8.192 93.184-14.336 160.768-65.536 200.704-52.224 40.96-115.712 37.888-133.12 31.744-18.432-6.144-33.792-5.12-47.104 3.072-21.504 12.288-37.888 45.056-47.104 93.184-12.288 65.536-52.224 122.88-108.544 157.696-31.744 18.432-76.8 36.864-140.288 36.864z m159.744-744.448c-54.272 0-106.496 7.168-148.48 19.456C285.696 225.28 40.96 343.04 107.52 630.784c30.72 111.616 104.448 184.32 218.112 217.088 86.016 24.576 160.768 19.456 217.088-15.36 46.08-27.648 79.872-76.8 90.112-131.072 12.288-60.416 33.792-101.376 66.56-120.832 23.552-14.336 50.176-16.384 80.896-7.168 10.24 3.072 59.392 4.096 97.28-26.624 38.912-31.744 55.296-87.04 49.152-163.84-6.144-67.584-36.864-120.832-93.184-159.744-67.584-44.032-159.744-62.464-247.808-62.464z" p-id="25914"></path><path d="M420.864 753.664c-26.624 0-55.296-9.216-79.872-27.648-54.272-39.936-69.632-110.592-35.84-155.648 17.408-22.528 43.008-35.84 74.752-37.888 29.696-1.024 59.392 8.192 84.992 27.648 25.6 19.456 43.008 45.056 50.176 73.728 7.168 29.696 2.048 59.392-14.336 81.92-18.432 25.6-48.128 37.888-79.872 37.888zM385.024 573.44h-3.072c-18.432 1.024-33.792 8.192-43.008 21.504-20.48 27.648-8.192 71.68 27.648 98.304 35.84 26.624 81.92 25.6 102.4-2.048 9.216-12.288 12.288-29.696 8.192-47.104-5.12-19.456-17.408-37.888-34.816-51.2-18.432-12.288-37.888-19.456-57.344-19.456zM734.208 240.64c-1.024 0-2.048 0-3.072-1.024-13.312-5.12-27.648-8.192-44.032-11.264l4.096-20.48c15.36 3.072 31.744 6.144 46.08 11.264 5.12 2.048 8.192 8.192 6.144 13.312-1.024 5.12-5.12 8.192-9.216 8.192zM878.592 404.48c-5.12 0-10.24-4.096-10.24-9.216-5.12-61.44-38.912-108.544-99.328-139.264-5.12-3.072-7.168-9.216-4.096-13.312 3.072-5.12 9.216-7.168 13.312-4.096 66.56 33.792 104.448 87.04 109.568 155.648 1.024 5.12-3.072 9.216-9.216 10.24 1.024 0 0 0 0 0z" p-id="25915"></path></svg>