<?xml version="1.0" standalone="no"?><!DOCTYPE svg PUBLIC "-//W3C//DTD SVG 1.1//EN" "http://www.w3.org/Graphics/SVG/1.1/DTD/svg11.dtd"><svg t="1626108725128" class="icon" viewBox="0 0 1024 1024" version="1.1" xmlns="http://www.w3.org/2000/svg" p-id="4317" xmlns:xlink="http://www.w3.org/1999/xlink" width="16" height="16"><defs><style type="text/css"></style></defs><path d="M805.973333 419.2a128 128 0 1 0-71.466666-166.186667 128 128 0 0 0 71.466666 166.186667z m-31.786666-150.4a85.333333 85.333333 0 1 1 0 65.28 85.333333 85.333333 0 0 1 0-65.28zM951.68 558.293333a192 192 0 0 1-252.16-100.693333A192 192 0 0 0 448 356.906667l-19.626667 8.533333a21.333333 21.333333 0 1 0 16 39.893333l19.626667-8.533333a149.333333 149.333333 0 0 1 196.053333 78.293333A234.666667 234.666667 0 0 0 968.32 597.333333a21.333333 21.333333 0 0 0-16.64-39.04zM597.333333 539.306667a65.92 65.92 0 0 0-93.013333-14.293334L52.48 814.08a21.333333 21.333333 0 0 0 23.04 36.053333l452.906667-290.133333a24.533333 24.533333 0 0 1 18.773333-5.333333 21.333333 21.333333 0 0 1 14.933333 9.173333l71.04 99.626667a27.306667 27.306667 0 0 1-21.333333 42.666666L362.666667 717.013333a21.333333 21.333333 0 0 0-21.333334 21.333334 21.333333 21.333333 0 0 0 21.333334 21.333333l250.666666-10.88a69.973333 69.973333 0 0 0 54.613334-108.8zM64 715.52a21.333333 21.333333 0 0 0 11.306667-3.413333l152.746666-96.853334a21.333333 21.333333 0 1 0-22.826666-36.053333L52.48 676.266667A21.333333 21.333333 0 0 0 64 715.52zM103.253333 587.52a21.333333 21.333333 0 0 0 11.093334-3.2l88.746666-54.186667a21.333333 21.333333 0 1 0-21.333333-36.48l-89.6 54.4a21.333333 21.333333 0 0 0 11.093333 39.466667z" fill="#CE4141" p-id="4318"></path></svg>