<?xml version="1.0" standalone="no"?><!DOCTYPE svg PUBLIC "-//W3C//DTD SVG 1.1//EN" "http://www.w3.org/Graphics/SVG/1.1/DTD/svg11.dtd"><svg t="1626356218740" class="icon" viewBox="0 0 1024 1024" version="1.1" xmlns="http://www.w3.org/2000/svg" p-id="18271" xmlns:xlink="http://www.w3.org/1999/xlink" width="16" height="16"><defs><style type="text/css"></style></defs><path d="M1010.346667 490.666667l-213.333334-83.626667a21.333333 21.333333 0 0 0-26.666666 29.653333l27.733333 53.973334H661.333333c-5.546667-211.626667-90.88-374.613333-199.253333-374.613334-21.333333 0-44.16-31.786667-56.96-78.933333a21.333333 21.333333 0 0 0-41.173333 11.093333 210.56 210.56 0 0 0 34.773333 74.24L117.546667 490.666667H21.333333a21.333333 21.333333 0 0 0 0 42.666666h96.213334l282.24 368.213334a210.56 210.56 0 0 0-34.773334 74.24 21.333333 21.333333 0 0 0 14.933334 26.24 21.333333 21.333333 0 0 0 5.546666 0 21.333333 21.333333 0 0 0 21.333334-15.786667c12.8-47.146667 35.626667-78.933333 56.96-78.933333 108.373333 0 193.706667-162.986667 199.253333-374.613334h134.613333l-27.52 55.253334a21.333333 21.333333 0 0 0 27.306667 29.226666l213.333333-87.04a21.333333 21.333333 0 0 0 0-39.68zM431.786667 150.826667a67.2 67.2 0 0 0 31.36 7.893333c81.92 0 151.466667 149.333333 156.586666 331.946667H170.666667z m31.36 714.453333a67.2 67.2 0 0 0-31.36 7.893333L170.666667 533.333333h448c-4.053333 181.973333-73.6 331.946667-155.52 331.946667z m369.92-308.906667l17.92-36.693333a21.333333 21.333333 0 0 0 0-18.986667l-17.066667-33.493333 111.36 42.666667z" p-id="18272"></path></svg>