<?xml version="1.0" standalone="no"?><!DOCTYPE svg PUBLIC "-//W3C//DTD SVG 1.1//EN" "http://www.w3.org/Graphics/SVG/1.1/DTD/svg11.dtd"><svg t="1626108746877" class="icon" viewBox="0 0 1024 1024" version="1.1" xmlns="http://www.w3.org/2000/svg" p-id="5342" xmlns:xlink="http://www.w3.org/1999/xlink" width="16" height="16"><defs><style type="text/css"></style></defs><path d="M512 64c234.656 213.344 352 394.656 352 544 0 194.4-157.6 352-352 352S160 802.4 160 608C160 458.656 277.344 277.344 512 64z m0 87.392l-5.376 5.184C316.768 338.752 224 490.88 224 608a288 288 0 0 0 576 0c0-114.56-88.864-262.816-270.624-439.84L512 151.36zM544 416l-38.4 96H608l-63.744 191.936h-64L522.72 576H416l64-160h64z" fill="#82529d" p-id="5343"></path></svg>