<?xml version="1.0" standalone="no"?><!DOCTYPE svg PUBLIC "-//W3C//DTD SVG 1.1//EN" "http://www.w3.org/Graphics/SVG/1.1/DTD/svg11.dtd"><svg t="1626229388828" class="icon" viewBox="0 0 1027 1024" version="1.1" xmlns="http://www.w3.org/2000/svg" p-id="11532" xmlns:xlink="http://www.w3.org/1999/xlink" width="16.046875" height="16"><defs><style type="text/css"></style></defs><path d="M986.333106 313.424529c-25.777344-60.946434-62.644941-115.5984-109.603669-162.557127S775.018831 66.941165 714.072397 41.163821C651.027808 14.487267 583.98673 0.999122 514.94741 0.999122c-69.039321 0-136.080398 13.488145-199.124988 40.164699-60.946434 25.777344-115.5984 62.644941-162.557128 109.703581s-83.926237 101.610694-109.603668 162.557127C16.985072 376.469119 3.397014 443.510196 3.397014 512.549517c0 69.039321 13.488145 136.080398 40.164699 199.124988 25.777344 60.946434 62.644941 115.5984 109.603669 162.557127 46.958728 46.958728 101.710606 83.826325 162.557128 109.603669 63.04459 26.676554 130.085667 40.164699 199.124987 40.164699 69.039321 0 136.080398-13.488145 199.124988-40.164699 60.946434-25.777344 115.5984-62.644941 162.557128-109.603669 46.958728-46.958728 83.826325-101.710606 109.603668-162.557127 26.676554-63.04459 40.164699-130.085667 40.164699-199.124988 0.199824-69.039321-13.288321-136.080398-39.964874-199.124988zM514.94741 984.135038c-260.071422 0-471.585521-211.514099-471.585521-471.585521s211.514099-471.585521 471.585521-471.585521 471.585521 211.514099 471.58552 471.585521-211.514099 471.585521-471.58552 471.585521z" fill="#727171" p-id="11533"></path><path d="M851.651478 498.561811h-315.722509V182.839301c0-10.990341-8.992097-19.982437-19.982438-19.982437h-1.998243c-10.990341 0-19.982437 8.992097-19.982438 19.982437v315.72251h-315.722509c-10.990341 0-19.982437 8.992097-19.982437 19.982437v1.998244c0 10.990341 8.992097 19.982437 19.982437 19.982437h315.722509v315.72251c0 10.990341 8.992097 19.982437 19.982438 19.982437h1.998243c10.990341 0 19.982437-8.992097 19.982438-19.982437V540.524929h315.722509c10.990341 0 19.982437-8.992097 19.982438-19.982437v-1.998244c0-10.990341-8.992097-19.982437-19.982438-19.982437z" fill="#727171" p-id="11534"></path></svg>