<?xml version="1.0" standalone="no"?><!DOCTYPE svg PUBLIC "-//W3C//DTD SVG 1.1//EN" "http://www.w3.org/Graphics/SVG/1.1/DTD/svg11.dtd"><svg t="1626359713298" class="icon" viewBox="0 0 1024 1024" version="1.1" xmlns="http://www.w3.org/2000/svg" p-id="8470" xmlns:xlink="http://www.w3.org/1999/xlink" width="16" height="16"><defs><style type="text/css"></style></defs><path d="M656.7936 897.1264H368.7424c-40.448 0-77.4144-25.4976-91.8528-63.5904-2.8672-6.3488-79.0528-175.7184-90.624-239.0016-3.9936-21.504 2.1504-43.3152 17.1008-61.2352 18.1248-21.7088 47.2064-35.2256 75.8784-35.2256 31.0272 0 56.832 15.2576 74.1376 42.3936 1.3312-2.048 2.8672-4.096 4.5056-6.0416 18.2272-22.4256 47.7184-36.352 77.1072-36.352 32.4608 0 61.1328 16.7936 77.824 42.1888 16.6912-25.3952 45.3632-42.1888 77.824-42.1888 29.2864 0 58.6752 13.4144 76.5952 35.1232 1.8432 2.2528 3.584 4.608 5.2224 6.9632 17.3056-26.5216 43.52-42.0864 73.9328-42.0864 28.672 0 57.7536 13.5168 75.8784 35.2256 14.9504 17.92 20.992 39.7312 17.1008 61.2352-11.6736 63.2832-87.7568 232.6528-91.0336 239.8208-14.2336 37.2736-51.0976 62.7712-91.5456 62.7712zM279.2448 528.7936c-19.5584 0-40.0384 9.5232-52.224 24.1664-6.3488 7.68-13.4144 20.1728-10.4448 36.0448 10.9568 59.6992 88.064 231.1168 88.7808 232.7552 10.3424 27.0336 35.6352 44.6464 63.488 44.6464h287.9488c27.8528 0 53.1456-17.6128 63.0784-43.7248 1.1264-2.56 78.2336-173.9776 89.1904-233.6768 2.9696-15.872-4.096-28.3648-10.4448-36.0448-12.288-14.6432-32.768-24.1664-52.3264-24.1664-36.9664 0-56.6272 33.9968-62.7712 65.8432A15.4624 15.4624 0 0 1 665.6 606.8224c-8.2944-1.6384-13.824-9.6256-12.1856-17.92 3.072-16.2816-3.6864-28.5696-9.8304-36.1472-12.0832-14.5408-32.8704-23.9616-52.9408-23.9616-34.4064 0-62.464 28.2624-62.464 62.976 0 8.4992-6.8608 15.36-15.36 15.36s-15.36-6.8608-15.36-15.36c0-34.7136-28.0576-62.976-62.464-62.976-20.0704 0-40.96 9.8304-53.248 24.9856-6.144 7.4752-12.6976 19.6608-9.5232 34.816v0.1024c1.7408 8.2944-3.584 16.4864-11.8784 18.2272-8.2944 1.8432-16.4864-3.584-18.2272-11.8784-4.3008-19.968-18.7392-66.2528-62.8736-66.2528z" fill="#8199A0" p-id="8471"></path><path d="M512.7168 897.1264c-8.4992 0-15.36-6.8608-15.36-15.36V591.7696c0-8.4992 6.8608-15.36 15.36-15.36s15.36 6.8608 15.36 15.36v289.9968c0 8.4992-6.8608 15.36-15.36 15.36zM614.912 889.1392c-0.9216 0-1.9456-0.1024-2.8672-0.3072-8.2944-1.536-13.824-9.6256-12.1856-17.92l53.5552-282.0096c1.536-8.2944 9.6256-13.824 17.92-12.1856 8.2944 1.536 13.824 9.6256 12.1856 17.92l-53.5552 282.0096c-1.4336 7.3728-7.8848 12.4928-15.0528 12.4928zM418.2016 897.1264c-7.0656 0-13.5168-4.9152-15.0528-12.1856L342.016 594.944c-1.7408-8.2944 3.584-16.4864 11.8784-18.2272 8.2944-1.7408 16.4864 3.584 18.2272 11.8784l61.1328 289.9968c1.7408 8.2944-3.584 16.4864-11.8784 18.2272-1.1264 0.2048-2.1504 0.3072-3.1744 0.3072zM263.5776 529.2032c-5.5296 0-10.752-2.9696-13.5168-8.0896a94.3616 94.3616 0 0 1-10.6496-53.8624 93.04064 93.04064 0 0 1 33.9968-63.488 92.6208 92.6208 0 0 1 68.3008-20.5824l360.8576 36.352c47.9232 4.8128 84.0704 44.8512 84.0704 93.184 0 8.4992-6.8608 15.36-15.36 15.36s-15.36-6.8608-15.36-15.36c0-32.5632-24.3712-59.4944-56.4224-62.6688L338.6368 413.696c-16.5888-1.6384-32.768 3.2768-45.7728 13.824a62.52544 62.52544 0 0 0-22.8352 42.8032c-1.2288 12.5952 1.2288 25.1904 7.168 36.2496a15.34976 15.34976 0 0 1-13.6192 22.6304z" fill="#8199A0" p-id="8472"></path><path d="M688.2304 448.8192c-3.072 0-6.144-0.9216-8.8064-2.7648-6.9632-4.8128-8.704-14.4384-3.7888-21.4016 4.9152-7.168 8.192-15.1552 9.6256-23.7568 5.2224-31.5392-15.9744-61.5424-47.3088-66.8672l-231.424-39.0144c-15.0528-2.56-30.208 0.9216-42.7008 9.8304a57.87648 57.87648 0 0 0-23.552 37.7856c-2.6624 16.2816 1.6384 33.0752 11.9808 45.9776 5.3248 6.656 4.1984 16.2816-2.4576 21.6064-6.656 5.3248-16.2816 4.1984-21.6064-2.4576a89.088 89.088 0 0 1-18.2272-70.144c3.8912-23.4496 16.6912-44.032 35.9424-57.7536a87.1424 87.1424 0 0 1 65.6384-15.1552l231.424 39.0144c48.0256 8.0896 80.4864 53.8624 72.4992 102.1952-2.1504 13.2096-7.168 25.3952-14.7456 36.352-2.8672 4.3008-7.68 6.5536-12.4928 6.5536z" fill="#8199A0" p-id="8473"></path><path d="M623.104 329.728c-2.4576 0-4.9152-0.6144-7.168-1.8432-7.4752-3.9936-10.3424-13.312-6.3488-20.7872 2.2528-4.3008 3.9936-8.9088 5.2224-13.6192 7.68-31.3344-11.3664-63.1808-42.496-70.8608l-34.816-8.6016a15.4624 15.4624 0 0 1-8.3968-5.4272l-18.2272-23.1424-0.2048 3.3792c-0.3072 4.5056-2.56 8.704-6.2464 11.3664-3.6864 2.6624-8.2944 3.584-12.6976 2.4576l-10.5472-2.6624a57.45664 57.45664 0 0 0-43.7248 6.656c-13.312 8.0896-22.7328 20.8896-26.5216 36.1472-2.56 10.4448-2.2528 21.2992 0.9216 31.5392 2.56 8.0896-1.9456 16.6912-10.1376 19.2512-8.0896 2.56-16.6912-1.9456-19.2512-10.1376a89.64096 89.64096 0 0 1-1.4336-47.9232 88.6784 88.6784 0 0 1 40.448-55.1936A87.71584 87.71584 0 0 1 481.28 168.6528l1.7408-25.2928c0.4096-6.3488 4.7104-11.776 10.8544-13.6192 6.0416-1.8432 12.6976 0.2048 16.5888 5.2224l39.6288 50.4832 29.696 7.3728c47.5136 11.776 76.5952 60.2112 64.9216 107.9296-1.7408 7.2704-4.4032 14.2336-7.8848 20.7872-2.9696 5.2224-8.2944 8.192-13.7216 8.192zM730.0096 435.4048c-23.8592 0-43.2128-19.456-43.2128-43.4176s19.456-43.4176 43.2128-43.4176 43.2128 19.456 43.2128 43.4176-19.3536 43.4176-43.2128 43.4176z m0-56.2176c-6.8608 0-12.4928 5.7344-12.4928 12.6976s5.632 12.6976 12.4928 12.6976 12.4928-5.7344 12.4928-12.6976-5.632-12.6976-12.4928-12.6976z" fill="#8199A0" p-id="8474"></path><path d="M536.576 315.1872c-23.8592 0-43.2128-19.456-43.2128-43.4176s19.456-43.4176 43.2128-43.4176c23.8592 0 43.2128 19.456 43.2128 43.4176s-19.3536 43.4176-43.2128 43.4176z m0-56.1152c-6.8608 0-12.4928 5.7344-12.4928 12.6976s5.632 12.6976 12.4928 12.6976 12.4928-5.7344 12.4928-12.6976-5.632-12.6976-12.4928-12.6976zM625.2544 244.8384c-23.8592 0-43.2128-19.456-43.2128-43.4176s19.456-43.4176 43.2128-43.4176 43.2128 19.456 43.2128 43.4176-19.3536 43.4176-43.2128 43.4176z m0-56.2176c-6.8608 0-12.4928 5.7344-12.4928 12.6976s5.632 12.6976 12.4928 12.6976 12.4928-5.7344 12.4928-12.6976-5.632-12.6976-12.4928-12.6976z" fill="#8199A0" p-id="8475"></path><path d="M536.576 435.4048c-23.8592 0-43.2128-19.456-43.2128-43.4176s19.456-43.4176 43.2128-43.4176c23.8592 0 43.2128 19.456 43.2128 43.4176s-19.3536 43.4176-43.2128 43.4176z m0-56.2176c-6.8608 0-12.4928 5.7344-12.4928 12.6976s5.632 12.6976 12.4928 12.6976 12.4928-5.7344 12.4928-12.6976-5.632-12.6976-12.4928-12.6976z" fill="#8199A0" p-id="8476"></path><path d="M296.2432 417.5872c-23.8592 0-43.2128-19.456-43.2128-43.4176s19.456-43.4176 43.2128-43.4176c23.8592 0 43.2128 19.456 43.2128 43.4176s-19.3536 43.4176-43.2128 43.4176z m0-56.1152c-6.9632 0-12.4928 5.7344-12.4928 12.6976s5.632 12.6976 12.4928 12.6976c6.8608 0 12.4928-5.7344 12.4928-12.6976s-5.632-12.6976-12.4928-12.6976z" fill="#8199A0" p-id="8477"></path><path d="M365.8752 294.2976c-23.8592 0-43.2128-19.456-43.2128-43.4176s19.456-43.4176 43.2128-43.4176c23.8592 0 43.2128 19.456 43.2128 43.4176s-19.3536 43.4176-43.2128 43.4176z m0-56.1152c-6.8608 0-12.4928 5.7344-12.4928 12.6976s5.632 12.6976 12.4928 12.6976c6.9632 0 12.4928-5.7344 12.4928-12.6976s-5.632-12.6976-12.4928-12.6976z" fill="#8199A0" p-id="8478"></path></svg>