<?xml version="1.0" standalone="no"?><!DOCTYPE svg PUBLIC "-//W3C//DTD SVG 1.1//EN" "http://www.w3.org/Graphics/SVG/1.1/DTD/svg11.dtd"><svg t="1626358481354" class="icon" viewBox="0 0 1024 1024" version="1.1" xmlns="http://www.w3.org/2000/svg" p-id="26670" xmlns:xlink="http://www.w3.org/1999/xlink" width="16" height="16"><defs><style type="text/css"></style></defs><path d="M219.6 193.3h142.9c14.4 0 26.1-11.8 26.1-26.2 0-14.4-11.7-26.2-26.1-26.2H219.6c-14.4 0-26.1 11.8-26.1 26.2 0 14.4 11.7 26.2 26.1 26.2zM951.8 471.3c-4.9-5-11.5-7.7-18.5-7.7H725.7c-46.5 0-87.9 10.1-123.1 30.1-30.4 17.2-56 41.6-76 72.3-0.6 0.8-1.1 1.6-1.6 2.5-32.6-0.6-59.7-6.5-80.4-17.7-17.1-9.2-30.5-22.3-39.9-39-17.8-31.9-17.8-70-17.8-90.5v-94.8c0-33.2-9.1-56.3-27.7-70.7-17.8-13.9-39.5-15.8-58.4-15.8h-47c-30.3 0-69.7 14-85.4 80.4-8.3 35-63.7 270.7-72.9 310-20.9 27.5-32 60.3-32 94.8 0 86.4 70 156.7 156 156.7 76.1 0 141.2-55.7 153.8-130.5h276.1c12.5 74.8 77.6 130.5 153.8 130.5 86 0 156-70.3 156-156.7V489.9c0.2-7-2.5-13.6-7.4-18.6z m-44.6 137.1c-28.5-25.5-65.5-39.8-103.8-39.8-76.1 0-141.2 55.7-153.8 130.5H533.9c4.5-37.8 17.6-75.4 36.4-104.4 34-52.3 86.2-78.7 155.4-78.7h181.5v92.4z m-103.8 12.7c57.2 0 103.8 46.8 103.8 104.3s-46.6 104.3-103.8 104.3c-57.2 0-103.8-46.8-103.8-104.3s46.6-104.3 103.8-104.3z m-480 104.3c0 57.5-46.5 104.3-103.8 104.3-57.2 0-103.8-46.8-103.8-104.3s46.6-104.3 103.8-104.3c57.3 0 103.8 46.8 103.8 104.3z m35.8-187.8c14.2 25.5 34.7 45.5 60.8 59.6 22.4 12.1 49.3 19.6 79.9 22.5-9.4 25.3-15.9 53-18.6 79.6H373.4c-12.5-74.8-77.7-130.6-153.8-130.6-20.4 0-40 3.9-58.6 11.5 10.7-45.2 24.8-105.2 36.6-155.3 10.3-43.9 18.9-80.2 21.7-92.3 9.5-40.1 25.2-40.1 34.5-40.1h47c13.8 0 22.2 1.5 26.4 4.8 2.8 2.1 7.4 8.8 7.4 29.3v94.8c0.1 23.4 0.1 72.3 24.6 116.2z" fill="#515151" p-id="26671"></path><path d="M665 431.2h165.1c46.9 0 85.1-39.1 85.1-87.1V250c0-48-38.2-87-85.1-87H665c-46.9 0-85.1 39-85.1 87v94.1c0 48 38.1 87.1 85.1 87.1z m198.4-87.1c0 18.9-15 34.3-33.3 34.3H665c-18.4 0-33.4-15.4-33.4-34.3V250c0-18.9 15-34.3 33.4-34.3h165.1c18.4 0 33.3 15.4 33.3 34.3v94.1zM787.1 771.8c20 0 36.2-16.6 36.2-37s-16.3-37-36.2-37c-20 0-36.3 16.6-36.3 37s16.3 37 36.3 37zM210.2 697.9c-20 0-36.2 16.6-36.2 37s16.3 37 36.2 37c20 0 36.3-16.6 36.3-37-0.1-20.4-16.3-37-36.3-37z" fill="#515151" p-id="26672"></path><path d="M688 257.8h154.4v44.1H688z" fill="#515151" p-id="26673"></path></svg>