<?xml version="1.0" standalone="no"?><!DOCTYPE svg PUBLIC "-//W3C//DTD SVG 1.1//EN" "http://www.w3.org/Graphics/SVG/1.1/DTD/svg11.dtd"><svg t="1626359715440" class="icon" viewBox="0 0 1024 1024" version="1.1" xmlns="http://www.w3.org/2000/svg" p-id="8623" xmlns:xlink="http://www.w3.org/1999/xlink" width="16" height="16"><defs><style type="text/css"></style></defs><path d="M792.02 952.73c-45.99 0-87.92-18.07-118.05-50.89l-139-138.98c-82.21 28.85-172.87 27.15-252.72-5.3-43.41-17.73-81.87-43.55-114.33-76.79-46.65-46.63-78.9-106.57-92.95-173.04-5.71-27.08-8.33-54.55-7.79-81.69 0.55-39.65 7.69-78.76 21.2-116.02l0.99-2.49c14.7-36.53 30.03-53.42 50.84-55.53 12.59-1.13 24.84 3.83 33.11 13.5l164.83 164.73 87.66-87.8L264.07 180.7c-15.37-15.35-16.97-39.45-3.76-56.03 16.94-21.31 38.18-29.64 45.37-31.98 38.6-14.34 65.13-18.25 100.39-20.4l3.23-0.16c7.63-0.38 13.85-0.61 20.2-0.61 45.96 0 90.71 8.65 133 25.73 43.2 17.39 81.63 42.73 114.22 75.32 48.2 48.08 80.93 108.93 94.6 175.96 11.73 57.02 9 116.63-7.82 173.36l145.45 145.34c31.08 31.21 48.16 72.72 48.16 116.97 0 1.61-0.05 3.19-0.17 4.78 0.49 42.1-15.83 82.98-45.02 112.78-28.13 32.81-68.26 50.89-113.15 50.89-1.78 0.06-4.26 0.08-6.75 0.08zM411.71 141.66l-2.92 0.14c-22.51 1.4-42.12 3.31-71.7 13.54l156.88 156.89c8.05 8.02 12.51 18.75 12.51 30.19 0 11.44-4.46 22.17-12.56 30.23L368.36 498.4c-16.09 16.17-44.34 16.19-60.45-0.02L151.02 341.6c-9 27.18-13.88 56.14-14.29 85.63-0.44 22.03 1.69 44.23 6.3 66.13 11.26 53.24 36.98 101.14 74.37 138.53 26.05 26.65 56.6 47.17 91.09 61.26 68.54 27.88 147.04 27.38 217.17-1.11a43.04 43.04 0 0 1 16.1-3.15c11.04 0 21.84 4.3 29.96 12.36l152.47 152.48c17.82 19.36 41.56 29.44 67.84 29.44l6.74-0.09c17.34 0 41.97-4.71 60.85-27.22l2.04-2.22c17.25-17.26 26.37-40.4 25.69-65.22l-0.1-3.71 0.28-1.49c-0.35-25.59-10.19-49.12-27.81-66.81l-157.1-156.98c-11.45-11.46-15.4-28.74-10.08-44.05 17.3-49.75 20.97-102.59 10.63-152.88-10.95-53.63-37.09-102.27-75.62-140.7-25.95-25.93-56.58-46.13-91.07-60.01-38.73-15.65-80.26-22.49-122.35-20.22m-94.99 307.67c-0.01 0.02-0.02 0.02-0.03 0.05l0.03-0.05z m37.92-0.09l0.08 0.09a0.242 0.242 0 0 0-0.08-0.09z m87.7-87.76l0.07 0.07-0.07-0.07z m0-37.95c-0.03 0.02-0.06 0.05-0.09 0.09l0.09-0.09z" fill="#666666" p-id="8624"></path></svg>