<?xml version="1.0" standalone="no"?><!DOCTYPE svg PUBLIC "-//W3C//DTD SVG 1.1//EN" "http://www.w3.org/Graphics/SVG/1.1/DTD/svg11.dtd"><svg t="1626359723556" class="icon" viewBox="0 0 1024 1024" version="1.1" xmlns="http://www.w3.org/2000/svg" p-id="9062" xmlns:xlink="http://www.w3.org/1999/xlink" width="16" height="16"><defs><style type="text/css"></style></defs><path d="M734.040816 929.959184h-449.306122c-45.97551 0-83.591837-37.616327-83.591837-83.591837V287.346939c0-45.97551 37.616327-83.591837 83.591837-83.591837h449.306122c45.97551 0 83.591837 37.616327 83.591837 83.591837v559.020408c0 45.97551-37.616327 83.591837-83.591837 83.591837z m-449.306122-684.408164c-22.987755 0-41.795918 18.808163-41.795918 41.795919v559.020408c0 22.987755 18.808163 41.795918 41.795918 41.795918h449.306122c22.987755 0 41.795918-18.808163 41.795919-41.795918V287.346939c0-22.987755-18.808163-41.795918-41.795919-41.795919h-449.306122z" p-id="9063"></path><path d="M734.040816 929.959184h-449.306122c-45.97551 0-83.591837-37.616327-83.591837-83.591837V365.714286h616.489796v480.653061c0 45.97551-37.616327 83.591837-83.591837 83.591837z m-491.10204-522.44898v438.857143c0 22.987755 18.808163 41.795918 41.795918 41.795918h449.306122c22.987755 0 41.795918-18.808163 41.795919-41.795918V407.510204h-532.897959z" p-id="9064"></path><path d="M689.632653 240.326531H334.367347c-28.734694 0-52.244898-23.510204-52.244898-52.244898v-41.795919c0-28.734694 23.510204-52.244898 52.244898-52.244898h355.265306c28.734694 0 52.244898 23.510204 52.244898 52.244898v41.795919c0 28.734694-23.510204 52.244898-52.244898 52.244898zM334.367347 135.836735c-5.746939 0-10.44898 4.702041-10.44898 10.448979v41.795919c0 5.746939 4.702041 10.44898 10.44898 10.448979h355.265306c5.746939 0 10.44898-4.702041 10.44898-10.448979v-41.795919c0-5.746939-4.702041-10.44898-10.44898-10.448979H334.367347z" p-id="9065"></path><path d="M613.877551 668.734694h-208.979592c-11.493878 0-20.897959-9.404082-20.897959-20.897959s9.404082-20.897959 20.897959-20.897959h208.979592c11.493878 0 20.897959 9.404082 20.897959 20.897959s-9.404082 20.897959-20.897959 20.897959z" p-id="9066"></path><path d="M509.387755 773.22449c-11.493878 0-20.897959-9.404082-20.897959-20.897959v-208.979592c0-11.493878 9.404082-20.897959 20.897959-20.897959s20.897959 9.404082 20.897959 20.897959v208.979592c0 11.493878-9.404082 20.897959-20.897959 20.897959z" p-id="9067"></path></svg>