<?xml version="1.0" standalone="no"?><!DOCTYPE svg PUBLIC "-//W3C//DTD SVG 1.1//EN" "http://www.w3.org/Graphics/SVG/1.1/DTD/svg11.dtd"><svg t="1626359161328" class="icon" viewBox="0 0 1024 1024" version="1.1" xmlns="http://www.w3.org/2000/svg" p-id="33513" xmlns:xlink="http://www.w3.org/1999/xlink" width="16" height="16"><defs><style type="text/css"></style></defs><path d="M786.57 864.23H781c-7.69 0-13.93-6.23-13.93-13.93 0-7.69 6.23-13.93 13.93-13.93h5.57c7.69 0 13.93 6.23 13.93 13.93-0.01 7.69-6.24 13.93-13.93 13.93z m-72.43 0h-66.85c-7.69 0-13.93-6.23-13.93-13.93 0-7.69 6.23-13.93 13.93-13.93h66.85c7.69 0 13.93 6.23 13.93 13.93 0 7.69-6.23 13.93-13.93 13.93z m-133.7 0h-66.85c-7.69 0-13.93-6.23-13.93-13.93 0-7.69 6.23-13.93 13.93-13.93h66.85c7.69 0 13.93 6.23 13.93 13.93 0 7.69-6.23 13.93-13.93 13.93z m-133.7 0h-66.85c-7.69 0-13.93-6.23-13.93-13.93 0-7.69 6.23-13.93 13.93-13.93h66.85c7.69 0 13.93 6.23 13.93 13.93 0 7.69-6.24 13.93-13.93 13.93z m-133.7 0h-66.85c-7.69 0-13.93-6.23-13.93-13.93 0-7.69 6.23-13.93 13.93-13.93h66.85c7.69 0 13.93 6.23 13.93 13.93 0 7.69-6.24 13.93-13.93 13.93z" fill="#03AC9A" p-id="33514"></path><path d="M226.69 928.29c-4.17 0-8.13-1.87-10.78-5.1-2.65-3.24-3.7-7.51-2.87-11.62 13.82-67.58 25.01-136.55 33.24-205 7.75-64.44 13.06-129.89 15.82-194.87-25.68 8.45-63.16 14.92-105.75 3.89-39.88-10.33-67.85-31.88-84.29-48.15a13.897 13.897 0 0 1-3.97-12.03 554.091 554.091 0 0 1 40.34-138.22 554.498 554.498 0 0 1 64.88-110.56c1.07-1.41 2.4-2.61 3.92-3.53l170.41-102.87c3.49-2.1 7.71-2.57 11.56-1.31 3.86 1.27 6.97 4.16 8.52 7.92 7 16.98 20.7 41.44 46.25 61.62 36.86 29.11 77.25 32.88 98.06 32.64h0.21c7.59 0 13.81 6.1 13.92 13.73 0.11 7.69-6.03 14.01-13.73 14.13-24.37 0.41-72.11-4.19-115.72-38.63-23.51-18.56-38.53-40.13-47.94-58.24l-154.82 93.47c-23.82 31.88-44 66.48-60.01 102.86A525.852 525.852 0 0 0 96.8 452.51c14.39 13.03 36.52 28.35 66.56 36.13 47.66 12.35 87.9-1.15 107.64-10.3a13.92 13.92 0 0 1 13.55 1.03c4.03 2.67 6.39 7.25 6.22 12.08-2.47 72.72-8.12 146.21-16.81 218.45-7.64 63.55-17.81 127.54-30.24 190.48l275.58-0.94h0.05c7.67 0 13.9 6.2 13.93 13.88 0.03 7.69-6.19 13.95-13.88 13.97l-292.64 1h-0.07z" fill="#03AC9A" p-id="33515"></path><path d="M797.88 928.29h-0.05l-292.64-1c-7.69-0.03-13.91-6.28-13.88-13.97 0.03-7.68 6.26-13.88 13.93-13.88h0.05l275.58 0.94a2575.172 2575.172 0 0 1-30.24-190.48 2570.471 2570.471 0 0 1-16.81-218.45c-0.16-4.83 2.19-9.41 6.22-12.08 4.04-2.67 9.16-3.06 13.55-1.03 19.75 9.15 59.99 22.65 107.64 10.3 30.04-7.78 52.17-23.1 66.56-36.13a525.852 525.852 0 0 0-37.14-124.09 526.347 526.347 0 0 0-60.01-102.86l-154.82-93.47c-9.41 18.11-24.43 39.68-47.94 58.24-43.62 34.43-91.21 39.04-115.72 38.62-7.69-0.11-13.83-6.44-13.73-14.13 0.11-7.62 6.33-13.73 13.92-13.73h0.21c20.84 0.26 61.2-3.54 98.06-32.64 25.55-20.18 39.25-44.64 46.25-61.62 1.55-3.76 4.66-6.65 8.52-7.92 3.86-1.27 8.07-0.8 11.56 1.31l170.41 102.87c1.52 0.92 2.85 2.12 3.92 3.53a554.498 554.498 0 0 1 64.88 110.56A554.091 554.091 0 0 1 956.5 455.4c0.69 4.41-0.79 8.89-3.97 12.03-16.44 16.27-44.41 37.82-84.29 48.15-42.6 11.03-80.08 4.55-105.75-3.89 2.76 64.98 8.07 130.43 15.82 194.87 8.23 68.45 19.42 137.42 33.24 205 0.84 4.1-0.21 8.37-2.87 11.62a13.997 13.997 0 0 1-10.8 5.11z" fill="#03AC9A" p-id="33516"></path></svg>