<?xml version="1.0" standalone="no"?><!DOCTYPE svg PUBLIC "-//W3C//DTD SVG 1.1//EN" "http://www.w3.org/Graphics/SVG/1.1/DTD/svg11.dtd"><svg t="1626359710218" class="icon" viewBox="0 0 1024 1024" version="1.1" xmlns="http://www.w3.org/2000/svg" p-id="8324" xmlns:xlink="http://www.w3.org/1999/xlink" width="16" height="16"><defs><style type="text/css"></style></defs><path d="M745.06 440.99c20.33 0 36.85 16.52 36.85 36.85V759.8c0 27.47-22.27 49.74-49.74 49.74H302.8c-20.32 0-36.86-16.52-36.86-36.85V477.84c0-20.33 16.54-36.85 36.86-36.85h442.26m0-36.86H315.68c-47.83 0-86.6 38.77-86.6 86.6V759.8c0 47.83 38.77 86.6 86.6 86.6h416.49c47.83 0 86.6-38.77 86.6-86.6V477.84c0-40.7-33-73.71-73.71-73.71z m-344.58-36.85c7.12 0 12.88-5.77 12.88-12.88v-23.97c0-20.3 16.54-36.86 36.85-36.86h147.42c20.33 0 36.85 16.56 36.85 36.86v23.97c0 7.12 5.77 12.88 12.88 12.88h11.08c7.12 0 12.88-5.77 12.88-12.88v-11.08c0-47.83-38.77-86.6-86.6-86.6H463.1c-47.83 0-86.6 38.77-86.6 86.6v11.08c0 7.12 5.77 12.88 12.88 12.88h11.1z m221.13 221.13h-47.94c-7.12 0-12.88-5.77-12.88-12.88v-47.94c0-7.12-5.77-12.88-12.88-12.88h-47.94c-7.12 0-12.88 5.77-12.88 12.88v47.94c0 7.12-5.77 12.88-12.88 12.88h-47.94c-7.12 0-12.88 5.77-12.88 12.88v47.94c0 7.12 5.77 12.88 12.88 12.88h47.94c7.12 0 12.88 5.77 12.88 12.88v47.94c0 7.12 5.77 12.88 12.88 12.88h47.94c7.12 0 12.88-5.77 12.88-12.88v-47.94c0-7.12 5.77-12.88 12.88-12.88h47.94c7.12 0 12.88-5.77 12.88-12.88v-47.94c0-7.11-5.76-12.88-12.88-12.88z m12.88 0" p-id="8325"></path></svg>