<?xml version="1.0" standalone="no"?><!DOCTYPE svg PUBLIC "-//W3C//DTD SVG 1.1//EN" "http://www.w3.org/Graphics/SVG/1.1/DTD/svg11.dtd"><svg t="1626108709121" class="icon" viewBox="0 0 1024 1024" version="1.1" xmlns="http://www.w3.org/2000/svg" p-id="3727" xmlns:xlink="http://www.w3.org/1999/xlink" width="16" height="16"><defs><style type="text/css"></style></defs><path d="M909.135926 920.271544 684.514075 920.271544c-0.206708-0.684592-0.446162-1.36509-0.730641-2.037403l-50.870598-120.131031c37.015032-14.876826 70.860884-36.009122 100.236935-62.078871l21.500687 21.499663-24.105001 24.105001c-7.79043 7.79043-7.79043 20.421098 0 28.211529 3.895727 3.89368 8.999978 5.842055 14.105253 5.842055s10.209526-1.948375 14.105253-5.842055l76.41846-76.41846c7.79043-7.79043 7.79043-20.421098 0-28.211529-7.792477-7.788383-20.419052-7.788383-28.211529 0l-24.102954 24.102954-21.439288-21.439288c50.609655-56.55404 82.84073-129.873929 87.193875-210.493062l28.603455 0 0 33.911344c0 11.016915 8.931416 19.947308 19.947308 19.947308s19.947308-8.930393 19.947308-19.947308L917.112598 423.574065c0-11.016915-8.931416-19.947308-19.947308-19.947308s-19.947308 8.930393-19.947308 19.947308l0 33.911344-28.754904 0c-4.828982-79.310324-36.633339-151.443178-86.342484-207.331046l20.738323-20.738323 24.102954 24.101931c3.895727 3.894703 8.999978 5.842055 14.105253 5.842055 5.106298 0 10.209526-1.948375 14.105253-5.843078 7.79043-7.79043 7.79043-20.420075 0-28.210505l-76.41846-76.416414c-7.792477-7.79043-20.419052-7.789407-28.211529 0.001023-7.79043 7.79043-7.79043 20.420075 0 28.210505l24.103978 24.102954-20.709671 20.709671c-56.417941-50.376341-129.473817-82.480526-209.794144-86.912465L524.142551 106.406448l33.911344 0c11.015891 0 19.947308-8.930393 19.947308-19.947308s-8.931416-19.947308-19.947308-19.947308L450.338638 66.511833c-11.015891 0-19.947308 8.930393-19.947308 19.947308s8.931416 19.947308 19.947308 19.947308l33.911344 0 0 28.694529c-79.846536 4.76656-152.438854 36.870746-208.53343 87.070055l-20.966521-20.966521 24.102954-24.102954c7.79043-7.79043 7.79043-20.421098 0-28.211529-7.792477-7.79043-20.419052-7.79043-28.211529 0l-76.416414 76.416414c-7.79043 7.79043-7.79043 20.421098 0 28.211529 3.894703 3.894703 9.001001 5.842055 14.105253 5.842055s10.210549-1.947352 14.105253-5.842055l24.102954-24.102954 21.026896 21.026896c-49.562812 55.847959-81.264838 127.869273-86.085634 207.043497l-30.30419 0 0-33.911344c0-11.016915-8.930393-19.947308-19.947308-19.947308s-19.947308 8.930393-19.947308 19.947308l0 107.717304c0 11.016915 8.930393 19.947308 19.947308 19.947308s19.947308-8.930393 19.947308-19.947308L131.175575 497.381048l30.153764 0c4.344958 80.482009 36.475749 153.690358 86.938048 210.204489l-21.727861 21.727861-24.102954-24.102954c-7.79043-7.786337-20.421098-7.788383-28.210505 0-7.79043 7.79043-7.791453 20.421098-0.001023 28.211529l76.416414 76.41846c3.895727 3.89368 8.999978 5.842055 14.105253 5.842055 5.104251 0 10.209526-1.948375 14.105253-5.842055 7.79043-7.79043 7.79043-20.421098 0-28.211529l-24.102954-24.103978 21.756513-21.756513c30.93557 27.514657 66.845431 49.541323 106.199741 64.549132l-47.684022 118.233821c-0.229221 0.568958-0.420579 1.144056-0.594541 1.720178L111.228267 920.271544c-11.016915 0-19.947308 8.931416-19.947308 19.947308s8.930393 19.947308 19.947308 19.947308l797.907659 0c11.015891 0 19.947308-8.931416 19.947308-19.947308S920.151817 920.271544 909.135926 920.271544zM617.355513 761.366418l-83.647095-197.532889c6.540973-2.212388 12.750395-5.145184 18.523889-8.725732l152.672168 152.671145C679.160137 730.269166 649.610124 748.500389 617.355513 761.366418zM454.918957 478.619752c0-27.600615 22.454408-50.053999 50.053999-50.053999 25.588795 0 46.739511 19.305695 49.687656 44.11473-0.373507 1.52575-0.593518 3.111874-0.593518 4.753257 0 1.882883 0.278339 3.697205 0.766456 5.423523-2.160199 25.622564-23.688515 45.815465-49.860595 45.815465C477.373365 528.672728 454.918957 506.219343 454.918957 478.619752zM484.249983 782.164093c-16.492626-1.11438-32.632211-3.532453-48.307216-7.182586l48.307216-119.777991L484.249983 782.164093zM524.145621 643.559315l55.108109 130.137942c-17.803481 4.483104-36.225039 7.385201-55.108109 8.565073L524.145621 643.559315zM733.176378 679.628812 580.664869 527.119349c5.760191-8.959046 9.983375-18.99154 12.273535-29.738301l215.703737 0C804.385187 567.007825 776.612657 630.374014 733.176378 679.628812zM808.490691 457.485409l-216.101803 0c-2.295276-9.492188-6.094812-18.399045-11.140735-26.456558l152.629189-152.629189C776.422322 326.979076 803.780413 389.164371 808.490691 457.485409zM705.694467 250.160503 553.141002 402.713968c-8.759501-5.579065-18.537192-9.685593-28.995381-11.965519L524.145621 174.97615C593.474616 179.308829 656.57884 206.954469 705.694467 250.160503zM484.249983 175.074388l0 216.032218c-10.006911 2.369977-19.367093 6.411013-27.777647 11.819187L303.96185 250.41633C352.754113 207.387327 415.393755 179.728384 484.249983 175.074388zM275.81172 278.688233l152.671145 152.671145c-4.942569 7.969509-8.665357 16.764825-10.92891 26.126031L201.454198 457.485409C206.15629 389.30047 233.412051 327.22467 275.81172 278.688233zM201.303772 497.381048l215.70169 0c2.261507 10.613732 6.407943 20.531616 12.059664 29.40675L276.512684 679.340239C233.222739 630.126374 205.552539 566.870702 201.303772 497.381048zM304.751842 707.523115 457.381032 554.894949c6.344498 3.972475 13.208836 7.184633 20.478404 9.488095L397.630183 763.311723C363.291097 750.321874 331.897086 731.296565 304.751842 707.523115zM420.865373 812.366975c20.467147 5.15951 41.657772 8.473999 63.384609 9.770528l0 30.312376-33.911344 0c-11.015891 0-19.947308 8.931416-19.947308 19.947308s8.931416 19.947308 19.947308 19.947308l107.717304 0c11.015891 0 19.947308-8.931416 19.947308-19.947308s-8.931416-19.947308-19.947308-19.947308l-33.911344 0 0-30.213116c24.365944-1.344624 48.058552-5.244444 70.827115-11.420097l46.350654 109.455901L377.347231 920.272567 420.865373 812.366975z" fill="#d4237a" p-id="3728"></path></svg>