<?xml version="1.0" standalone="no"?><!DOCTYPE svg PUBLIC "-//W3C//DTD SVG 1.1//EN" "http://www.w3.org/Graphics/SVG/1.1/DTD/svg11.dtd"><svg t="1626061002983" class="icon" viewBox="0 0 1024 1024" version="1.1" xmlns="http://www.w3.org/2000/svg" p-id="2988" xmlns:xlink="http://www.w3.org/1999/xlink" width="16" height="16"><defs><style type="text/css"></style></defs><path d="M702.765056 343.051264 333.442048 343.051264c-18.464768 0-36.93056-15.181824-36.93056-35.424256 0-20.245504 18.465792-35.42528 36.93056-35.42528l369.323008 0c18.464768 0 36.933632 15.1808 36.933632 35.42528C739.698688 327.86944 721.229824 343.051264 702.765056 343.051264L702.765056 343.051264z" fill="" p-id="2989"></path><path d="M702.765056 489.015296 333.442048 489.015296c-18.464768 0-36.93056-14.135296-36.93056-32.971776 0-18.8416 18.465792-32.975872 36.93056-32.975872l369.323008 0c18.464768 0 36.933632 14.133248 36.933632 32.975872C739.698688 474.88 721.229824 489.015296 702.765056 489.015296L702.765056 489.015296z" fill="" p-id="2990"></path><path d="M770.47296 59.904 253.423616 59.904c-43.086848 0-73.86624 36.93056-73.86624 80.018432l0 43.086848 0 652.47232 0 43.086848c0 43.087872 30.779392 80.02048 73.86624 80.02048l36.93056 0 110.7968 0c18.465792 0 36.93056-18.466816 36.93056-43.087872 0-24.62208-17.09056-30.685184-35.557376-30.685184l-76.411904 0.941056c-61.55264 0-86.57408 12.796928-85.0688-79.048704L241.043456 219.501568c0.041984-105.836544 15.808512-99.74784 88.080384-100.877312l368.13312-1.129472c94.856192 1.129472 94.856192 1.129472 95.98464 102.761472l-1.26976 375.33184-206.1568-0.165888c-43.091968 0-73.867264 36.931584-73.867264 80.02048l0 43.0848 0 203.128832c0 6.158336 3.38432 23.822336 10.841088 31.760384 8.751104 9.316352 13.550592 11.552768 26.089472 11.328512 14.071808-0.251904 21.492736-7.14752 30.779392-18.464768l252.366848-283.14624c10.94656-11.392 12.3136-10.189824 12.3136-24.623104l0-6.156288 0-492.43136C844.3392 96.83456 813.560832 59.904 770.47296 59.904zM557.232128 893.284352l0.858112-134.59968c3.093504-131.90144-21.184512-120.04352 112.58368-121.9584l109.018112-0.909312L557.232128 893.284352z" fill="" p-id="2991"></path><path d="M776.631296 139.922432 776.631296 139.922432 776.631296 170.7008 776.631296 139.922432Z" fill="" p-id="2992"></path><path d="M776.631296 139.922432" fill="" p-id="2993"></path></svg>