<?xml version="1.0" standalone="no"?><!DOCTYPE svg PUBLIC "-//W3C//DTD SVG 1.1//EN" "http://www.w3.org/Graphics/SVG/1.1/DTD/svg11.dtd"><svg t="1626358473151" class="icon" viewBox="0 0 1024 1024" version="1.1" xmlns="http://www.w3.org/2000/svg" p-id="26375" xmlns:xlink="http://www.w3.org/1999/xlink" width="16" height="16"><defs><style type="text/css"></style></defs><path d="M605.1 849.7v32.5H420.9v-32.5h184.2m4.5-46H416.4c-22.9 0-41.5 18.6-41.5 41.5v41.5c0 22.9 18.6 41.5 41.5 41.5h193.2c22.9 0 41.5-18.6 41.5-41.5v-41.5c0-22.9-18.6-41.5-41.5-41.5zM513 144.2c35.4 0 69.8 7.4 102.2 22 31.5 14.2 59.8 34.6 84.3 60.7 24.6 26.3 43.9 56.9 57.5 91 8.5 21.3 14.4 43.5 17.8 66.3H251.3c3.4-22.8 9.4-44.9 17.8-66.3 13.5-34.1 32.9-64.8 57.5-91 24.4-26 52.8-46.5 84.3-60.7 32.3-14.6 66.7-22 102.1-22m0-46c-171.8 0-311.1 148.6-311.1 332h622.3c-0.1-183.3-139.4-332-311.2-332z" p-id="26376"></path><path d="M861.2 434.7v78.5c0 38.6-7.6 76.1-22.5 111.3-14.4 34.1-35 64.6-61.3 90.9-26.3 26.3-56.9 46.9-90.9 61.3-35.2 14.9-72.7 22.5-111.3 22.5H450.8c-38.6 0-76.1-7.6-111.3-22.5-34-14.4-64.6-35-90.9-61.3-26.3-26.3-46.9-56.9-61.3-90.9-14.9-35.2-22.5-72.7-22.5-111.3v-78.5h696.4m4.5-46H160.3c-22.9 0-41.5 18.6-41.5 41.5v83c0 183.4 148.6 332 332 332h124.5c183.4 0 332-148.6 332-332v-83c-0.1-22.9-18.6-41.5-41.6-41.5z" p-id="26377"></path></svg>